<svg width="24" height="29" viewBox="0 0 24 29" fill="none" xmlns="http://www.w3.org/2000/svg">
<rect width="24" height="29" rx="1" fill="white"/>
<path d="M2.28509 28H21.3078C21.6486 27.9998 21.9754 27.8685 22.2164 27.6351C22.4573 27.4017 22.5929 27.0851 22.5932 26.755V2.24503C22.5929 1.91493 22.4574 1.59844 22.2165 1.36502C21.9755 1.1316 21.6489 1.00032 21.3081 1H2.28509C1.94437 1.00032 1.61769 1.1316 1.37676 1.36502C1.13583 1.59844 1.00033 1.91493 1 2.24503V26.755C1.00033 27.0851 1.13583 27.4016 1.37676 27.635C1.61769 27.8684 1.94437 27.9997 2.28509 28ZM17.2653 1.91011V2.79383C17.2651 2.87928 17.23 2.96118 17.1676 3.02158C17.1052 3.08197 17.0206 3.11593 16.9324 3.11601H6.66047C6.57227 3.11593 6.48771 3.08197 6.42531 3.02158C6.36291 2.96118 6.32778 2.87928 6.32762 2.79383V1.91011H17.2653ZM1.93908 2.24503C1.93916 2.15618 1.97565 2.07099 2.04054 2.00819C2.10542 1.94539 2.19338 1.91011 2.28509 1.91011H5.38822V2.79383C5.38864 3.12058 5.52282 3.43384 5.76133 3.66486C5.99985 3.89588 6.32321 4.0258 6.66047 4.02612H16.9324C17.2697 4.0258 17.5931 3.89588 17.8316 3.66486C18.0701 3.43384 18.2043 3.12058 18.2047 2.79383V1.91011H21.3078C21.3995 1.91019 21.4874 1.9455 21.5522 2.0083C21.617 2.07109 21.6534 2.15623 21.6535 2.24503V26.755C21.6534 26.8438 21.617 26.9289 21.5522 26.9917C21.4874 27.0545 21.3995 27.0898 21.3078 27.0899H2.28509C2.19338 27.0899 2.10542 27.0546 2.04054 26.9918C1.97565 26.929 1.93916 26.8438 1.93908 26.755V2.24503Z" fill="#04C65D"/>
<path d="M14.2893 18.3816L11.3612 21.8455L9.25134 20.0368C9.158 19.9568 9.03568 19.916 8.9113 19.9234C8.78693 19.9308 8.67068 19.9858 8.58813 20.0762C8.50558 20.1667 8.46349 20.2852 8.47113 20.4057C8.47876 20.5262 8.53549 20.6388 8.62884 20.7188L11.1041 22.8402C11.19 22.9139 11.3007 22.9546 11.4154 22.9546C11.4279 22.9546 11.4404 22.954 11.453 22.9531C11.5159 22.9481 11.5772 22.9309 11.6332 22.9025C11.6891 22.8741 11.7386 22.8351 11.7786 22.7878L15.0164 18.9586C15.0954 18.8652 15.1328 18.7452 15.1205 18.6251C15.1082 18.5049 15.0471 18.3944 14.9506 18.3179C14.8542 18.2414 14.7304 18.2051 14.6064 18.217C14.4823 18.229 14.3683 18.2882 14.2893 18.3816ZM6.0527 7.91683H14.2483C14.3729 7.91683 14.4923 7.86888 14.5804 7.78354C14.6685 7.6982 14.718 7.58246 14.718 7.46177C14.718 7.34108 14.6685 7.22534 14.5804 7.14C14.4923 7.05466 14.3729 7.00671 14.2483 7.00671H6.0527C5.92813 7.00671 5.80866 7.05466 5.72058 7.14C5.63249 7.22534 5.58301 7.34108 5.58301 7.46177C5.58301 7.58246 5.63249 7.6982 5.72058 7.78354C5.80866 7.86888 5.92813 7.91683 6.0527 7.91683ZM6.0527 10.2573H17.5402C17.6648 10.2573 17.7843 10.2094 17.8724 10.124C17.9605 10.0387 18.0099 9.92296 18.0099 9.80228C18.0099 9.68159 17.9605 9.56584 17.8724 9.4805C17.7843 9.39516 17.6648 9.34722 17.5402 9.34722H6.0527C5.92813 9.34722 5.80866 9.39516 5.72058 9.4805C5.63249 9.56584 5.58301 9.68159 5.58301 9.80228C5.58301 9.92296 5.63249 10.0387 5.72058 10.124C5.80866 10.2094 5.92813 10.2573 6.0527 10.2573ZM6.0527 12.5975H17.5402C17.6648 12.5975 17.7843 12.5496 17.8724 12.4643C17.9605 12.3789 18.0099 12.2632 18.0099 12.1425C18.0099 12.0218 17.9605 11.906 17.8724 11.8207C17.7843 11.7354 17.6648 11.6874 17.5402 11.6874H6.0527C5.92813 11.6874 5.80866 11.7354 5.72058 11.8207C5.63249 11.906 5.58301 12.0218 5.58301 12.1425C5.58301 12.2632 5.63249 12.3789 5.72058 12.4643C5.80866 12.5496 5.92813 12.5975 6.0527 12.5975Z" fill="#04C65D"/>
</svg>
