<svg width="22" height="25" viewBox="0 0 22 25" fill="none" xmlns="http://www.w3.org/2000/svg">
<path d="M11.1497 11.1111C12.3118 11.1111 13.4478 10.7853 14.414 10.1748C15.3803 9.56438 16.1334 8.69672 16.5781 7.68158C17.0228 6.66643 17.1392 5.54939 16.9125 4.47172C16.6858 3.39405 16.1262 2.40414 15.3044 1.62719C14.4827 0.850228 13.4357 0.321113 12.296 0.106751C11.1562 -0.107611 9.97478 0.00240712 8.90114 0.422894C7.82749 0.843381 6.90983 1.55545 6.2642 2.46906C5.61857 3.38266 5.27397 4.45677 5.27397 5.55556C5.27397 7.02898 5.89301 8.44206 6.99492 9.48393C8.09683 10.5258 9.59134 11.1111 11.1497 11.1111ZM19.9632 25C20.3528 25 20.7264 24.8537 21.0019 24.5932C21.2774 24.3327 21.4322 23.9795 21.4322 23.6111C21.4322 21.0326 20.3488 18.5597 18.4205 16.7365C16.4921 14.9132 13.8768 13.8889 11.1497 13.8889C8.42259 13.8889 5.8072 14.9132 3.87886 16.7365C1.95052 18.5597 0.867188 21.0326 0.867188 23.6111C0.867188 23.9795 1.02195 24.3327 1.29743 24.5932C1.5729 24.8537 1.94653 25 2.33611 25H19.9632Z" fill="white"/>
</svg>
