<svg width="26" height="25" viewBox="0 0 26 25" fill="none" xmlns="http://www.w3.org/2000/svg">
<path d="M12.8446 25C19.9437 25 25.6978 19.404 25.6978 12.5C25.6978 5.596 19.9437 1.41813e-06 12.8446 8.14564e-07C5.74562 2.10997e-07 -0.00846116 5.596 -0.00846178 12.5C-0.0084624 19.404 5.74562 25 12.8446 25ZM9.24578 8.159C9.24583 8.00823 9.28693 7.86017 9.36489 7.72986C9.44285 7.59954 9.55489 7.49162 9.68963 7.41706C9.82437 7.3425 9.97701 7.30396 10.132 7.30535C10.287 7.30675 10.4389 7.34803 10.5722 7.425L18.0712 11.766C18.2018 11.8417 18.31 11.9491 18.3851 12.0777C18.4602 12.2063 18.4996 12.3516 18.4996 12.4995C18.4996 12.6474 18.4602 12.7927 18.3851 12.9213C18.31 13.0499 18.2018 13.1573 18.0712 13.233L10.5722 17.574C10.439 17.6513 10.2872 17.6928 10.1321 17.6944C9.97709 17.696 9.82438 17.6576 9.68956 17.5831C9.55474 17.5086 9.44264 17.4006 9.36468 17.2703C9.28672 17.1399 9.2457 16.9918 9.24578 16.841L9.24578 8.159Z" fill="white"/>
</svg>
