<svg width="150" height="153" viewBox="0 0 150 153" fill="none" xmlns="http://www.w3.org/2000/svg">
<g clip-path="url(#clip0_7_17)">
<path d="M112.801 79.5804L114.377 78.6636V79.2103L112.801 80.1271V79.5804Z" fill="#86A2C4"/>
<path d="M108.792 77.2601L110.364 76.3466L114.377 78.6636L112.801 79.5804L108.792 77.2601Z" fill="#9FEEFF"/>
<path d="M111.026 75.2598L112.602 74.343L114.736 75.5799L113.164 76.4933L111.026 75.2598Z" fill="#9FEEFF"/>
<path d="M115.063 74.5731L116.634 73.6596L115.026 76.2933L113.451 77.2101L115.063 74.5731Z" fill="#A9B8F2"/>
<path d="M118.786 76.18L120.361 75.2632V75.8099L118.786 76.7267V76.18Z" fill="#86A2C4"/>
<path d="M114.773 73.8597L116.348 72.9429L120.361 75.2632L118.786 76.18L114.773 73.8597Z" fill="#9FEEFF"/>
<path d="M118.786 76.18V76.7267L115.063 74.5731L113.451 77.2101L111.026 75.8066V75.2598L113.164 76.4933L114.773 73.8596L118.786 76.18Z" fill="#86A2C4"/>
<path d="M140.013 82.2641L138.437 81.3506L136.303 82.5841L137.878 83.4976L140.013 82.2641Z" fill="#9FEEFF"/>
<path d="M135.976 81.5773L134.405 80.6639L136.013 83.2976L137.588 84.2143L135.976 81.5773Z" fill="#A9B8F2"/>
<path d="M126.026 79.6604L124.454 78.7469V79.2937L126.029 80.2071L126.026 79.6604Z" fill="#86A2C4"/>
<path d="M130.039 77.3434L128.467 76.4266L124.454 78.7469L126.026 79.6604L130.039 77.3434Z" fill="#9FEEFF"/>
<path d="M127.801 75.3432L126.229 74.4264L124.094 75.6599L125.666 76.5767L127.801 75.3432Z" fill="#9FEEFF"/>
<path d="M123.768 74.6564L122.193 73.7396L123.804 76.3733L125.38 77.2901L123.768 74.6564Z" fill="#A9B8F2"/>
<path d="M120.045 76.26L118.469 75.3465V75.8933L120.045 76.8067V76.26Z" fill="#86A2C4"/>
<path d="M124.058 73.943L122.482 73.0262L118.469 75.3465L120.045 76.26L124.058 73.943Z" fill="#9FEEFF"/>
<path d="M120.045 76.26V76.8067L123.768 74.6564L125.38 77.2901L127.804 75.8899L127.801 75.3432L125.666 76.5767L124.058 73.943L120.045 76.26Z" fill="#86A2C4"/>
<path d="M115.589 69.2924L115.199 69.5191L114.546 69.1424L107.473 65.0552C107.413 65.0185 107.376 64.9552 107.376 64.8852C107.376 64.8152 107.413 64.7518 107.473 64.7151L110.773 62.8082L102.701 58.0509L101.935 57.6009C101.842 57.5475 101.812 57.4275 101.865 57.3342C101.918 57.2408 102.038 57.2075 102.131 57.2642L103.107 57.8376L111.259 62.6415C111.319 62.6782 111.356 62.7416 111.356 62.8116C111.356 62.8816 111.319 62.9449 111.259 62.9816L107.963 64.8852L114.939 68.9157L115.589 69.2924Z" fill="#5CCDFF"/>
<path d="M102.971 56.7074C103.553 57.0441 103.553 57.5908 102.971 57.9276C102.388 58.2643 101.445 58.2643 100.863 57.9276C100.28 57.5908 100.28 57.0441 100.863 56.7074C101.445 56.3707 102.388 56.3707 102.971 56.7074Z" fill="#5CCDFF"/>
<path d="M99.1242 57.7109C99.7069 58.0476 99.7069 58.5943 99.1242 58.931C98.5414 59.2677 97.5989 59.2677 97.0161 58.931C96.4333 58.5943 96.4333 58.0476 97.0161 57.7109C97.5989 57.3742 98.5414 57.3742 99.1242 57.7109Z" fill="#5CCDFF"/>
<path d="M142.717 71.4293L141.245 72.2794L135.46 75.6232L134.811 75.9999L134.418 75.7732L135.067 75.3965L140.835 72.0627L142.517 71.0893C142.61 71.0359 142.73 71.066 142.783 71.1626C142.837 71.256 142.807 71.376 142.71 71.4293H142.717Z" fill="#5CCDFF"/>
<path d="M140.975 70.9359C140.392 71.2727 140.392 71.8194 140.975 72.1561C141.558 72.4928 142.5 72.4928 143.083 72.1561C143.666 71.8194 143.666 71.2727 143.083 70.9359C142.5 70.5992 141.558 70.5992 140.975 70.9359Z" fill="#5CCDFF"/>
<path d="M137.062 57.9409L136.299 58.391L128.224 63.1483L131.524 65.0552C131.584 65.0919 131.62 65.1552 131.62 65.2252C131.62 65.2952 131.584 65.3586 131.524 65.3952L124.647 69.3691L123.998 69.7458L121.547 71.1627L121.45 71.1893C121.383 71.1893 121.317 71.1527 121.28 71.0926C121.227 70.9993 121.257 70.8793 121.35 70.8259L123.608 69.5224L124.261 69.1457L131.038 65.2285L127.741 63.3216C127.681 63.285 127.644 63.2216 127.644 63.1516C127.644 63.0816 127.681 63.0183 127.741 62.9816L135.893 58.1776L136.869 57.6042C136.962 57.5509 137.082 57.5809 137.135 57.6742C137.189 57.7676 137.159 57.8876 137.065 57.9443L137.062 57.9409Z" fill="#5CCDFF"/>
<path d="M136.02 57.0475C135.437 57.3842 135.437 57.9309 136.02 58.2676C136.603 58.6043 137.545 58.6043 138.128 58.2676C138.711 57.9309 138.711 57.3842 138.128 57.0475C137.545 56.7107 136.603 56.7107 136.02 57.0475Z" fill="#5CCDFF"/>
<path d="M99.5504 70.7359L96.3101 68.8523C95.9538 68.6456 95.6907 68.2389 95.5908 67.5922L98.8311 69.4757C98.931 70.1225 99.1941 70.5292 99.5504 70.7359Z" fill="#99E5FF"/>
<mask id="mask0_7_17" style="mask-type:luminance" maskUnits="userSpaceOnUse" x="95" y="67" width="5" height="4">
<path d="M99.5504 70.7359L96.3101 68.8523C95.9538 68.6456 95.6907 68.2389 95.5908 67.5922L98.8311 69.4757C98.931 70.1225 99.1941 70.5292 99.5504 70.7359Z" fill="white"/>
</mask>
<g mask="url(#mask0_7_17)">
<path d="M99.5504 70.7359L96.3101 68.8523C95.9571 68.6456 95.694 68.2422 95.5908 67.6055L98.8311 69.4891C98.9343 70.1292 99.1941 70.5325 99.5504 70.7359Z" fill="#99E5FF"/>
<path d="M98.8311 69.4891L95.5941 67.6055L95.5908 67.5922L98.8311 69.4757V69.4891Z" fill="#99E5FF"/>
</g>
<path d="M102.338 36.9115L105.578 38.7951C104.632 38.245 103.324 38.315 101.855 39.1618L98.6146 37.2782C100.08 36.4314 101.392 36.3614 102.338 36.9115Z" fill="#99E5FF"/>
<mask id="mask1_7_17" style="mask-type:luminance" maskUnits="userSpaceOnUse" x="98" y="36" width="8" height="4">
<path d="M102.338 36.9115L105.578 38.7951C104.632 38.245 103.324 38.315 101.855 39.1618L98.6146 37.2782C100.08 36.4314 101.392 36.3614 102.338 36.9115Z" fill="white"/>
</mask>
<g mask="url(#mask1_7_17)">
<path d="M101.855 39.1618L98.6146 37.2782C100.08 36.4314 101.392 36.3614 102.338 36.9115L105.578 38.7951C104.632 38.245 103.324 38.315 101.855 39.1618Z" fill="#99E5FF"/>
</g>
<path d="M98.8311 69.4758L95.5908 67.5922L92.4804 47.8263L95.7173 49.7098L98.8311 69.4758Z" fill="#99E5FF"/>
<path d="M100.866 39.7319L97.6289 37.8483L98.6146 37.2782L101.855 39.1618L100.866 39.7319Z" fill="#AFF7FF"/>
<path d="M95.7173 49.7098L92.477 47.8262C91.9475 44.4625 94.3986 39.7118 97.6255 37.8483L100.866 39.7318C97.6389 41.5988 95.1878 46.346 95.7173 49.7098Z" fill="#AFF7FF"/>
<mask id="mask2_7_17" style="mask-type:luminance" maskUnits="userSpaceOnUse" x="92" y="37" width="9" height="13">
<path d="M95.7173 49.7098L92.477 47.8262C91.9475 44.4625 94.3986 39.7118 97.6255 37.8483L100.866 39.7318C97.6389 41.5988 95.1878 46.346 95.7173 49.7098Z" fill="white"/>
</mask>
<g mask="url(#mask2_7_17)">
<path d="M95.7173 49.7098L92.477 47.8262C92.3172 46.8028 92.4304 45.6526 92.7601 44.4925L96.0004 46.376C95.6707 47.5362 95.5575 48.6863 95.7207 49.7098H95.7173Z" fill="#AFF7FF"/>
<path d="M96.0004 46.3794L92.7601 44.4958C93.1297 43.1923 93.7691 41.8788 94.5917 40.7253L97.832 42.6089C97.0094 43.7624 96.37 45.0759 96.0004 46.3794Z" fill="#AFF7FF"/>
<path d="M97.832 42.6055L94.5917 40.722C95.2211 39.8418 95.9538 39.0517 96.7564 38.435L99.9967 40.3186C99.1941 40.9353 98.4614 41.7254 97.832 42.6055Z" fill="#AFF7FF"/>
<path d="M99.9967 40.3186L96.7564 38.435C97.0394 38.2183 97.3292 38.0216 97.6289 37.8483L100.869 39.7318C100.573 39.9052 100.28 40.1019 99.9967 40.3186Z" fill="#AFF7FF"/>
</g>
<path d="M101.855 39.1618C105.082 37.2949 107.55 39.2018 107.04 43.1656L104.05 66.4587C103.813 68.2989 102.631 69.8358 101.445 70.5192C100.26 71.2026 99.0742 71.0393 98.8278 69.4757L95.714 49.7098C95.1845 46.346 97.6355 41.5954 100.863 39.7318L101.848 39.1618H101.855Z" fill="#2855AC"/>
<path d="M105.438 39.3285L107.693 40.642C106.734 40.0852 105.408 40.1619 103.946 41.0087L101.692 39.6952C103.157 38.8484 104.482 38.7717 105.438 39.3285Z" fill="#5CCDFF"/>
<mask id="mask3_7_17" style="mask-type:luminance" maskUnits="userSpaceOnUse" x="101" y="38" width="7" height="4">
<path d="M105.438 39.3285L107.693 40.642C106.734 40.0852 105.408 40.1619 103.946 41.0087L101.692 39.6952C103.157 38.8484 104.482 38.7717 105.438 39.3285Z" fill="white"/>
</mask>
<g mask="url(#mask3_7_17)">
<path d="M103.946 41.0087L101.692 39.6952C103.157 38.8484 104.482 38.7717 105.438 39.3285L107.693 40.642C106.734 40.0852 105.408 40.1619 103.946 41.0087Z" fill="#5CCDFF"/>
</g>
<path d="M104.469 43.2157C106.461 42.0622 108.086 42.9923 108.092 45.2859C108.099 47.5796 106.487 50.3766 104.492 51.5267C102.498 52.6802 100.873 51.7534 100.869 49.4598C100.863 47.1695 102.478 44.3658 104.469 43.2157Z" fill="#5CCDFF"/>
<path d="M100.23 53.497L97.9752 52.1835C97.0294 51.6334 96.4433 50.4633 96.44 48.803C96.43 45.4559 98.7811 41.3787 101.692 39.6985L103.946 41.012C101.036 42.6922 98.6846 46.7728 98.6945 50.1165C98.6979 51.7801 99.284 52.9469 100.23 53.497Z" fill="#5CCDFF"/>
<mask id="mask4_7_17" style="mask-type:luminance" maskUnits="userSpaceOnUse" x="96" y="39" width="8" height="15">
<path d="M100.23 53.497L97.9752 52.1835C97.0294 51.6334 96.4433 50.4633 96.44 48.803C96.43 45.4559 98.7811 41.3787 101.692 39.6985L103.946 41.012C101.036 42.6922 98.6846 46.7728 98.6945 50.1165C98.6979 51.7801 99.284 52.9469 100.23 53.497Z" fill="white"/>
</mask>
<g mask="url(#mask4_7_17)">
<path d="M100.23 53.497L97.9752 52.1835C97.136 51.6934 96.5799 50.7166 96.4633 49.3431L98.7179 50.6566C98.8344 52.0335 99.3906 53.0103 100.23 53.497Z" fill="#5CCDFF"/>
<path d="M98.7179 50.6566L96.4633 49.3431C96.45 49.1698 96.44 48.9897 96.44 48.8031C96.4333 45.916 98.1784 42.4889 100.526 40.522L102.781 41.8355C100.433 43.8024 98.6879 47.2328 98.6945 50.1166C98.6945 50.3033 98.7045 50.4833 98.7179 50.6566Z" fill="#5CCDFF"/>
<path d="M102.781 41.8321L100.526 40.5186C100.902 40.2053 101.292 39.9286 101.692 39.6952L103.946 41.0087C103.547 41.2421 103.154 41.5188 102.781 41.8321Z" fill="#5CCDFF"/>
</g>
<path d="M104.469 43.2157L103.946 41.0087C106.857 39.3285 109.221 40.6787 109.231 44.0258C109.241 47.3729 106.89 51.4467 103.98 53.1303C101.069 54.8105 98.7045 53.4637 98.6946 50.1166C98.6846 46.7695 101.036 42.6923 103.946 41.012L104.469 43.219C102.478 44.3691 100.859 47.1728 100.869 49.4631C100.876 51.7568 102.501 52.6836 104.492 51.5301C106.487 50.3799 108.099 47.5796 108.092 45.2893C108.086 42.9956 106.461 42.0688 104.469 43.219V43.2157Z" fill="#5CCDFF"/>
<mask id="mask5_7_17" style="mask-type:luminance" maskUnits="userSpaceOnUse" x="98" y="40" width="12" height="14">
<path d="M104.469 43.2157L103.946 41.0087C106.857 39.3285 109.221 40.6787 109.231 44.0258C109.241 47.3729 106.89 51.4467 103.98 53.1303C101.069 54.8105 98.7045 53.4637 98.6946 50.1166C98.6846 46.7695 101.036 42.6923 103.946 41.012L104.469 43.219C102.478 44.3691 100.859 47.1695 100.869 49.4631C100.876 51.7568 102.501 52.6836 104.492 51.5301C106.487 50.3799 108.099 47.5796 108.092 45.2893C108.086 42.9956 106.461 42.0688 104.469 43.219" fill="white"/>
</mask>
<g mask="url(#mask5_7_17)">
<path d="M104.469 43.2157L103.946 41.0087C106.857 39.3285 109.221 40.6787 109.231 44.0258C109.241 47.3729 106.89 51.4467 103.98 53.1303C101.069 54.8105 98.7045 53.4637 98.6946 50.1166C98.6846 46.7695 101.036 42.6923 103.946 41.012L104.469 43.219C102.478 44.3691 100.859 47.1728 100.869 49.4631C100.876 51.7568 102.501 52.6836 104.492 51.5301C106.487 50.3799 108.099 47.5796 108.092 45.2893C108.086 42.9956 106.461 42.0688 104.469 43.219V43.2157Z" fill="#58AAF8"/>
</g>
<path d="M103.617 22.2096L97.7688 3.1004L103.617 22.2096Z" fill="#2497D8"/>
<path d="M103.067 22.3796L97.2193 3.27043L98.3182 2.93372L104.166 22.0429L103.067 22.3796Z" fill="#1C1C1E"/>
<path d="M110.58 82.2174C105.215 78.9003 104.01 74.4464 103.493 72.5428C103.91 74.3664 105.335 76.1833 107.769 77.6468C113.85 81.3106 123.918 81.414 130.255 77.8735C132.976 76.3533 134.568 74.4097 135.017 72.3961C134.604 73.973 133.982 76.36 131.604 79.117C130.705 80.1605 128.72 82.1041 125.549 83.3776C120.727 85.3145 114.853 84.8577 110.577 82.2141L110.58 82.2174Z" fill="#86A2C4"/>
<path d="M130.358 38.7051C136.286 42.2755 136.083 47.9663 129.905 51.4167C123.728 54.8638 113.914 54.7672 107.986 51.1934C102.058 47.6229 102.261 41.9321 108.439 38.4817C114.616 35.0346 124.431 35.1313 130.358 38.7051Z" fill="#9FEEFF"/>
<path d="M103.48 72.4928L98.7012 51.5834C99.2574 54.0204 101.112 56.3807 104.276 58.2843C112.179 63.0449 125.26 63.1783 133.495 58.581C137.032 56.6074 139.1 54.0804 139.683 51.4667L135.021 72.4028C134.571 74.4164 132.983 76.36 130.258 77.8802C123.921 81.4173 113.854 81.3173 107.773 77.6535C105.338 76.1866 103.913 74.3731 103.483 72.4962L103.48 72.4928Z" fill="#A9B8F2"/>
<path d="M105.898 38.1483C113.97 33.7611 125.4 33.8911 133.076 38.4583C132.39 38.045 131.434 38.0783 130.358 38.6784C124.431 35.1079 114.616 35.0079 108.439 38.455C102.261 41.9055 102.058 47.5962 107.986 51.1667C113.914 54.7371 123.728 54.8372 129.905 51.39C136.083 47.9429 136.286 42.2488 130.358 38.6784C131.434 38.0783 132.39 38.045 133.076 38.4583C134.684 39.4985 137.112 41.072 138.8 44.3791C140.376 47.4662 139.899 50.2332 139.693 51.4167C139.094 54.1004 137.025 56.6241 133.492 58.5976C125.256 63.1949 112.175 63.0616 104.273 58.3009C101.112 56.3974 99.2607 54.0437 98.7012 51.6067C98.5047 50.5433 98.3182 49.5398 98.5047 47.9663C98.7412 45.9927 99.5271 44.5058 99.5604 44.4458C100.15 43.3457 101.712 40.4253 105.895 38.1516L105.898 38.1483Z" fill="#99E5FF"/>
<path d="M127.774 12.895C132.32 15.6354 132.163 19.9993 127.424 22.6463C122.685 25.2933 115.159 25.2166 110.61 22.4763C106.064 19.7359 106.221 15.372 110.96 12.725C115.699 10.078 123.225 10.1547 127.774 12.895Z" fill="#AFF7FF"/>
<path d="M104.606 45.5593C97.2859 41.0254 95.6807 35.0246 95.6208 30.7907C95.6307 34.1911 97.812 37.5916 102.195 40.2319C111.223 45.6693 126.166 45.8226 135.573 40.5686C140.416 37.8649 142.847 34.2578 142.837 30.6507C142.753 32.8643 142.634 34.0144 141.744 36.4914C141.048 38.435 139.803 40.0886 139.133 40.9787C138.82 41.3921 135.916 45.0959 130.312 47.2828C120.594 51.0733 110.397 49.1464 104.606 45.5559V45.5593Z" fill="#A9B8F2"/>
<path d="M105.282 12.0416C109.568 9.70459 114.38 8.55444 119.585 8.62112C124.93 8.69113 129.729 9.96129 133.845 12.4049C132.303 11.4748 130.152 11.5648 127.774 12.8917C123.228 10.1513 115.699 10.0746 110.96 12.7217C106.221 15.3687 106.064 19.7326 110.61 22.4729C115.156 25.2133 122.685 25.29 127.424 22.643C132.163 19.9993 132.32 15.632 127.774 12.8917C130.152 11.5648 132.303 11.4748 133.845 12.4049C136.016 13.8085 142.617 18.0757 142.83 27.1735C142.84 30.7807 140.409 34.3878 135.567 37.0915C126.159 42.3422 111.213 42.1922 102.188 36.7548C97.8054 34.1145 95.6241 30.714 95.6141 27.3136C95.664 25.9901 95.7173 24.4932 96.2968 22.663C96.9828 20.4927 97.5689 19.5625 98.548 18.0223C99.3206 16.8055 101.718 13.9885 105.285 12.0449L105.282 12.0416Z" fill="#9FEEFF"/>
<path d="M123.864 40.6587C116.218 41.5588 107.983 40.2453 102.185 36.7548C97.8287 34.1311 95.6474 30.754 95.6108 27.3703C95.6041 25.1733 96.5066 23.1464 98.0285 21.5228C98.0585 24.5566 100.017 27.5836 103.923 29.9373C109.121 33.071 116.511 34.2478 123.368 33.4411C123.675 35.9214 123.858 38.4617 123.864 40.6587Z" fill="#343070"/>
<path d="M95.6241 30.7907L95.6141 27.3136C95.6241 30.714 97.8054 34.1145 102.188 36.7548C111.216 42.1922 126.159 42.3455 135.567 37.0915C140.409 34.3878 142.84 30.7807 142.83 27.1736L142.84 30.6507C142.85 34.2578 140.419 37.865 135.577 40.5686C126.169 45.8193 111.223 45.6693 102.198 40.2319C97.8154 37.5916 95.6341 34.1911 95.6241 30.7907Z" fill="#99E5FF"/>
<path d="M99.4505 30.8907C98.9876 32.2042 98.1917 32.2909 97.6422 31.0907C96.7231 29.0871 97.6589 26.6635 98.8511 27.0102C99.0675 27.0735 99.1808 27.1969 99.304 27.3303C100.07 28.4171 99.657 30.314 99.4539 30.8907H99.4505Z" fill="#5CCDFF"/>
<path d="M112.831 36.8348C112.482 38.8051 110.007 39.1384 108.758 37.3816C107.453 35.548 108.885 33.4344 110.71 33.6611C110.777 33.6711 110.867 33.6877 110.933 33.7011C112.542 34.1678 113.011 35.8147 112.831 36.8348Z" fill="#5CCDFF"/>
<path d="M134.881 28.357C134.881 27.1902 134.062 26.7168 133.052 27.3002C132.043 27.8837 131.224 29.3038 131.224 30.4707C131.224 31.6375 132.043 32.1109 133.052 31.5275C134.062 30.9441 134.881 29.5239 134.881 28.357Z" fill="#2497D8"/>
<path d="M133.289 29.4405L146.617 19.4292L133.289 29.4405Z" fill="#2497D8"/>
<path d="M133.289 30.0139C133.116 30.0139 132.943 29.9339 132.829 29.7839C132.64 29.5305 132.689 29.1705 132.943 28.9771L146.27 18.9658C146.523 18.7758 146.883 18.8258 147.073 19.0791C147.263 19.3325 147.213 19.6926 146.96 19.8826L133.632 29.8939C133.529 29.9706 133.409 30.0072 133.289 30.0072V30.0139Z" fill="#1C1C1E"/>
<path d="M150 18.7091C150 16.9956 148.615 15.6087 146.903 15.6087C145.191 15.6087 143.806 16.9989 143.806 18.7091C143.806 20.4227 145.191 21.8095 146.903 21.8095C148.615 21.8095 150 20.4193 150 18.7091Z" fill="#2497D8"/>
<path d="M100.586 3.10041C100.586 1.39018 99.1974 0 97.4857 0C95.774 0 94.3886 1.39018 94.3886 3.10041C94.3886 4.81396 95.774 6.20081 97.4857 6.20081C99.1974 6.20081 100.583 4.81063 100.583 3.10041H100.586Z" fill="#2497D8"/>
<path d="M137.622 50.4633L139.876 51.7768C138.917 51.22 137.592 51.2967 136.13 52.1435L133.875 50.83C135.34 49.9832 136.666 49.9065 137.622 50.4633Z" fill="#5CCDFF"/>
<mask id="mask6_7_17" style="mask-type:luminance" maskUnits="userSpaceOnUse" x="133" y="50" width="7" height="3">
<path d="M137.622 50.4633L139.876 51.7768C138.917 51.22 137.592 51.2967 136.13 52.1435L133.875 50.83C135.34 49.9832 136.666 49.9065 137.622 50.4633Z" fill="white"/>
</mask>
<g mask="url(#mask6_7_17)">
<path d="M136.13 52.1435L133.875 50.83C135.34 49.9832 136.666 49.9065 137.622 50.4633L139.876 51.7768C138.917 51.22 137.592 51.2967 136.13 52.1435Z" fill="#5CCDFF"/>
</g>
<path d="M136.652 54.3505C138.644 53.197 140.269 54.1271 140.276 56.4207C140.282 58.711 138.671 61.5114 136.676 62.6615C134.681 63.815 133.056 62.8882 133.052 60.5946C133.046 58.3043 134.661 55.5006 136.652 54.3505Z" fill="#5CCDFF"/>
<path d="M132.413 64.6318L130.159 63.3183C129.213 62.7682 128.627 61.5981 128.623 59.9378C128.613 56.5907 130.964 52.5135 133.875 50.8333L136.13 52.1468C133.219 53.827 130.868 57.9076 130.878 61.2513C130.881 62.9149 131.467 64.0817 132.413 64.6318Z" fill="#5CCDFF"/>
<mask id="mask7_7_17" style="mask-type:luminance" maskUnits="userSpaceOnUse" x="128" y="50" width="9" height="15">
<path d="M132.413 64.6318L130.159 63.3183C129.213 62.7682 128.627 61.5981 128.623 59.9378C128.613 56.5907 130.964 52.5135 133.875 50.8333L136.13 52.1468C133.219 53.827 130.868 57.9076 130.878 61.2513C130.881 62.9149 131.467 64.0817 132.413 64.6318Z" fill="white"/>
</mask>
<g mask="url(#mask7_7_17)">
<path d="M132.413 64.6318L130.159 63.3183C129.319 62.8282 128.763 61.8514 128.647 60.4779L130.901 61.7914C131.018 63.1683 131.574 64.145 132.416 64.6318H132.413Z" fill="#5CCDFF"/>
<path d="M130.901 61.7881L128.647 60.4746C128.633 60.3012 128.623 60.1212 128.623 59.9345C128.617 57.0475 130.362 53.6203 132.709 51.6501L134.964 52.9636C132.616 54.9305 130.871 58.361 130.878 61.248C130.878 61.4347 130.888 61.6147 130.901 61.7881Z" fill="#5CCDFF"/>
<path d="M134.964 52.9669L132.709 51.6534C133.082 51.3401 133.475 51.0634 133.875 50.83L136.13 52.1435C135.73 52.3769 135.337 52.6536 134.964 52.9669Z" fill="#5CCDFF"/>
</g>
<path d="M136.652 54.3504L136.13 52.1435C139.04 50.4633 141.405 51.8134 141.415 55.1605C141.425 58.5076 139.074 62.5815 136.163 64.2651C133.252 65.9453 130.888 64.5984 130.878 61.2513C130.868 57.9042 133.219 53.827 136.13 52.1468L136.652 54.3538C134.661 55.5039 133.043 58.3043 133.052 60.5979C133.056 62.8915 134.684 63.8183 136.676 62.6648C138.671 61.5147 140.282 58.7143 140.276 56.424C140.269 54.1304 138.644 53.2036 136.652 54.3538V54.3504Z" fill="#5CCDFF"/>
<mask id="mask8_7_17" style="mask-type:luminance" maskUnits="userSpaceOnUse" x="130" y="51" width="12" height="14">
<path d="M136.652 54.3504L136.13 52.1435C139.04 50.4633 141.405 51.8134 141.415 55.1605C141.425 58.5076 139.074 62.5815 136.163 64.2651C133.252 65.9453 130.888 64.5984 130.878 61.2513C130.868 57.9042 133.219 53.827 136.13 52.1468L136.652 54.3538C134.661 55.5039 133.043 58.3043 133.052 60.5979C133.056 62.8915 134.684 63.8183 136.676 62.6648C138.671 61.5147 140.282 58.7143 140.276 56.424C140.269 54.1304 138.644 53.2036 136.652 54.3538" fill="white"/>
</mask>
<g mask="url(#mask8_7_17)">
<path d="M136.652 54.3504L136.13 52.1435C139.04 50.4633 141.405 51.8134 141.415 55.1605C141.425 58.5076 139.074 62.5815 136.163 64.2651C133.252 65.9453 130.888 64.5984 130.878 61.2513C130.868 57.9042 133.219 53.827 136.13 52.1468L136.652 54.3538C134.661 55.5039 133.043 58.3043 133.052 60.5979C133.056 62.8915 134.684 63.8183 136.676 62.6648C138.671 61.5147 140.282 58.7143 140.276 56.424C140.269 54.1304 138.644 53.2036 136.652 54.3538V54.3504Z" fill="#58AAF8"/>
</g>
<path d="M137.648 85.3045L134.408 83.4209C134.052 83.2142 133.788 82.8075 133.689 82.1607L136.929 84.0443C137.032 84.6911 137.292 85.0978 137.648 85.3045Z" fill="#99E5FF"/>
<mask id="mask9_7_17" style="mask-type:luminance" maskUnits="userSpaceOnUse" x="133" y="82" width="5" height="4">
<path d="M137.648 85.3045L134.408 83.4209C134.052 83.2142 133.788 82.8075 133.689 82.1607L136.929 84.0443C137.029 84.6911 137.292 85.0978 137.648 85.3045Z" fill="white"/>
</mask>
<g mask="url(#mask9_7_17)">
<path d="M137.648 85.3045L134.408 83.4209C134.055 83.2142 133.792 82.8108 133.689 82.1741L136.929 84.0576C137.032 84.6977 137.292 85.1011 137.648 85.3045Z" fill="#99E5FF"/>
<path d="M136.929 84.0577L133.689 82.1741V82.1607L136.926 84.0443L136.929 84.0577Z" fill="#99E5FF"/>
</g>
<path d="M140.432 51.48L143.673 53.3636C142.727 52.8136 141.418 52.8836 139.949 53.7303L136.709 51.8468C138.178 51 139.486 50.93 140.432 51.48Z" fill="#99E5FF"/>
<mask id="mask10_7_17" style="mask-type:luminance" maskUnits="userSpaceOnUse" x="136" y="51" width="8" height="3">
<path d="M140.432 51.48L143.673 53.3636C142.727 52.8136 141.418 52.8836 139.949 53.7303L136.709 51.8468C138.178 51 139.486 50.93 140.432 51.48Z" fill="white"/>
</mask>
<g mask="url(#mask10_7_17)">
<path d="M139.949 53.7303L136.709 51.8468C138.178 51 139.486 50.93 140.432 51.48L143.673 53.3636C142.727 52.8136 141.418 52.8836 139.949 53.7303Z" fill="#99E5FF"/>
</g>
<path d="M136.926 84.0443L133.689 82.1608L130.575 62.3948L133.815 64.2784L136.926 84.0443Z" fill="#99E5FF"/>
<path d="M138.964 54.3004L135.723 52.4168L136.712 51.8468L139.949 53.7303L138.964 54.3004Z" fill="#AFF7FF"/>
<path d="M133.815 64.2784L130.575 62.3948C130.045 59.031 132.496 54.2804 135.723 52.4168L138.964 54.3004C135.737 56.1673 133.286 60.9146 133.815 64.2784Z" fill="#AFF7FF"/>
<mask id="mask11_7_17" style="mask-type:luminance" maskUnits="userSpaceOnUse" x="130" y="52" width="9" height="13">
<path d="M133.815 64.2784L130.575 62.3948C130.045 59.031 132.496 54.2804 135.723 52.4168L138.964 54.3004C135.737 56.1673 133.286 60.9146 133.815 64.2784Z" fill="white"/>
</mask>
<g mask="url(#mask11_7_17)">
<path d="M133.815 64.2784L130.575 62.3948C130.415 61.3713 130.528 60.2212 130.858 59.061L134.098 60.9446C133.768 62.1048 133.655 63.2549 133.815 64.2784Z" fill="#AFF7FF"/>
<path d="M134.095 60.948L130.855 59.0644C131.224 57.7609 131.864 56.4474 132.686 55.2906L135.926 57.1741C135.104 58.3276 134.465 59.6411 134.095 60.9446V60.948Z" fill="#AFF7FF"/>
<path d="M135.926 57.1741L132.686 55.2906C133.316 54.4105 134.048 53.6203 134.851 53.0036L138.091 54.8872C137.289 55.5039 136.556 56.294 135.926 57.1741Z" fill="#AFF7FF"/>
<path d="M138.091 54.8872L134.851 53.0036C135.134 52.7869 135.427 52.5902 135.723 52.4168L138.964 54.3004C138.667 54.4738 138.374 54.6705 138.091 54.8872Z" fill="#AFF7FF"/>
</g>
<path d="M139.949 53.7304C143.176 51.8668 145.644 53.7704 145.135 57.7342L142.147 81.0273C141.911 82.8675 140.729 84.4044 139.543 85.0878C138.358 85.7712 137.172 85.6079 136.926 84.0443L133.812 64.2784C133.282 60.9146 135.733 56.164 138.96 54.3004L139.946 53.7304H139.949Z" fill="#2855AC"/>
<path d="M119.692 107.014C132.29 107.014 142.504 103.656 142.504 99.513C142.504 95.3703 132.29 92.012 119.692 92.012C107.093 92.012 96.8796 95.3703 96.8796 99.513C96.8796 103.656 107.093 107.014 119.692 107.014Z" fill="#2855AC"/>
<path d="M13.7372 124.186L0.29972 116.419C-0.0999068 116.189 -0.0999068 115.815 0.29972 115.585L47.5556 88.2716C47.9552 88.0415 48.598 88.0415 48.9976 88.2716L62.4351 96.0392C62.8347 96.2693 62.8347 96.6426 62.4351 96.8727L15.1792 124.186C14.7795 124.416 14.1368 124.416 13.7372 124.186Z" fill="#2C7C95"/>
<path d="M56.2175 5.72077L16.3314 28.7704C15.5322 29.2338 14.8828 30.3607 14.8828 31.2874V121.336C14.8828 122.259 15.5322 122.639 16.3314 122.173L56.2175 99.123C57.0168 98.6596 57.6662 97.5328 57.6662 96.606V6.56088C57.6662 5.63743 57.0168 5.25738 56.2175 5.7241V5.72077ZM55.5781 88.3082C55.5781 89.1017 55.022 89.6051 54.336 90.0018L18.0698 110.961C17.3838 111.358 16.8276 111.038 16.8276 110.241V39.7052C16.8276 38.9084 17.3871 37.945 18.0698 37.5483L54.336 16.5922C55.0253 16.1921 55.5781 16.5155 55.5781 17.3089V88.3116V88.3082Z" fill="#101127"/>
<path d="M16.1516 122.263C15.3457 122.633 14.1768 122.599 13.4308 122.173L11.7724 121.213C10.9664 120.749 10.317 119.626 10.317 118.696V28.6571C10.317 28.3037 10.4103 27.9303 10.5668 27.5703C10.6168 27.4503 10.6734 27.3369 10.74 27.2202C10.7433 27.2202 10.7433 27.2169 10.7433 27.2169L15.3091 29.8539H15.3124C15.2158 30.0273 15.1292 30.2073 15.0626 30.3873C14.9527 30.6907 14.8861 30.9974 14.8861 31.2874V121.336C14.8861 122.189 15.4389 122.576 16.1549 122.263H16.1516Z" fill="#2D303C"/>
<path d="M36.6192 102.733C37.8847 102.003 38.9104 102.593 38.9104 104.057C38.9104 105.52 37.8847 107.297 36.6192 108.027C35.3537 108.758 34.328 108.167 34.328 106.704C34.328 105.24 35.3537 103.464 36.6192 102.733Z" fill="#00EBEB"/>
<path d="M36.2762 19.1892C36.8123 18.8792 37.2486 19.1292 37.2486 19.7526C37.2486 20.376 36.8123 21.1294 36.2762 21.4395C35.74 21.7495 35.3037 21.4995 35.3037 20.8761C35.3037 20.256 35.74 19.4992 36.2762 19.1892Z" fill="black"/>
<path d="M32.523 25.11L40.0293 20.7694C40.4756 20.5094 40.8419 20.6927 40.8419 21.1794C40.8419 21.6662 40.4789 22.2696 40.0293 22.5263L32.523 26.8669C32.0734 27.1269 31.7104 26.9402 31.7137 26.4568C31.7137 25.9701 32.0767 25.3667 32.5263 25.11H32.523Z" fill="black"/>
<path d="M55.5815 88.2349C55.5815 89.0283 55.0253 89.5317 54.3393 89.9284L18.0731 110.888C17.3871 111.285 16.831 110.965 16.831 110.168V39.6319C16.831 38.8351 17.3904 37.8716 18.0731 37.4749L54.3393 16.5188C55.0286 16.1188 55.5815 16.4422 55.5815 17.2356V88.2382V88.2349Z" fill="#00EBEB" stroke="white" stroke-miterlimit="10"/>
<path d="M57.6529 6.3275C57.5496 5.57407 56.9469 5.3007 56.2209 5.72075L16.3314 28.7704C15.9318 29.0005 15.5688 29.4005 15.3091 29.8572L10.7433 27.2202C11.0097 26.7635 11.3694 26.3735 11.769 26.1434L51.6518 3.08708C52.4477 2.62368 53.7498 2.62368 54.5524 3.08708L56.2175 4.04387C56.9502 4.47059 57.5563 5.45405 57.6495 6.33083L57.6529 6.3275Z" fill="#56527D"/>
<path d="M29.6623 56.9741L29.3526 47.1628L31.5306 46.0527L33.3256 48.5964C33.8351 49.3231 34.3513 50.2299 34.7476 51.0867L34.7809 51.0667C34.6077 49.8999 34.5178 48.663 34.4512 47.2828L34.328 44.6192L35.8965 43.8191L36.3594 52.9403L34.5245 54.0437L32.6662 51.3534C32.1467 50.6033 31.5672 49.6665 31.1243 48.7664L31.0877 48.7997C31.1809 50.0332 31.2575 51.3734 31.3141 52.9569L31.4207 55.914L29.659 56.9741H29.6623Z" fill="white"/>
<path d="M37.3352 43.089L41.5679 40.9287L41.6744 42.4789L39.0469 43.8624L39.1668 45.8527L41.6378 44.4991L41.7444 46.0727L39.2667 47.4729L39.4832 51.0667L37.8347 52.0601L37.3418 43.0923L37.3352 43.089Z" fill="white"/>
<path d="M43.939 45.806C44.0456 46.5661 44.6617 46.5961 45.331 46.2027C45.8139 45.9193 46.1936 45.606 46.5532 45.2292L46.8363 46.3761C46.4 46.8961 45.8472 47.3562 45.2311 47.7296C43.6459 48.6864 42.6269 48.0163 42.4904 46.0694C42.3805 44.5058 43.0099 42.3989 44.6184 41.5388C46.067 40.7653 46.7231 41.9355 46.843 43.379C46.8696 43.6924 46.8629 43.9824 46.8563 44.1258L43.9357 45.806H43.939ZM45.5209 43.5724C45.4842 43.1223 45.2777 42.4556 44.6284 42.8123C44.0256 43.1423 43.8324 43.9924 43.8324 44.5192L45.5209 43.5724Z" fill="white"/>
<path d="M19.1588 70.6959L54.7589 50.1199V55.0572L19.1588 75.6332V70.6959Z" fill="#56527D"/>
<path d="M20.5808 71.5194V73.1629L53.3369 54.2338V52.5869L20.5808 71.5194Z" fill="#2D303C"/>
<path d="M19.1588 70.6959L17.7334 69.8725L53.3369 49.2964L54.7589 50.1199L19.1588 70.6959Z" fill="#101127"/>
<path d="M17.7334 69.8725L19.1588 70.6959V75.6332L17.7334 74.8098V69.8725Z" fill="#2D303C"/>
<path d="M121.693 134.904L90.359 153V152.197L121.69 134.101L121.693 134.904Z" fill="#101127"/>
<path d="M60.4536 85.4345L53.5533 89.4217L49.3106 91.872C49.1741 91.942 49.0409 92.0187 48.911 92.102C47.3291 93.0788 46.2135 94.8157 46.2135 96.946V116.799C46.2102 118.729 45.291 120.342 43.9356 121.353C42.9566 122.086 41.751 122.506 40.5022 122.506C39.5564 122.506 38.584 122.263 37.6648 121.733C32.3764 118.676 29.1228 113.028 29.1228 106.917V86.3246C29.1228 83.2676 28.3102 80.3272 26.8349 77.7735C25.3597 75.2165 23.225 73.0396 20.5808 71.5127L51.9115 53.4037C54.5591 54.9339 56.6937 57.1175 58.169 59.6711C59.6443 62.2281 60.4569 65.1685 60.4569 68.2223V77.1934C60.4569 79.7604 60.4569 85.4278 60.4569 85.4278L60.4536 85.4345Z" fill="#C1C1DE"/>
<path d="M71.8496 141.495C66.5612 138.441 63.3076 132.794 63.3076 126.687V106.821C63.3076 104.497 62.8347 102.247 61.9622 100.176C61.6857 99.5197 61.3694 98.8863 61.0164 98.2662C59.5411 95.7125 57.4064 93.5356 54.7622 92.0087C50.9658 89.8151 46.2202 92.5621 46.2235 96.9493V98.9729V96.946V116.799V112.668V116.792C46.2235 121.183 41.4779 123.926 37.6782 121.736C32.3898 118.679 29.1361 113.031 29.1361 106.921V86.328C29.1361 83.2709 28.3236 80.3305 26.8483 77.7768C25.373 75.2198 23.2383 73.0429 20.5941 71.516V72.3361C25.4429 75.3065 28.4368 80.6205 28.4368 86.328V106.921C28.4368 113.261 31.8436 119.169 37.3318 122.343C39.3333 123.499 41.7244 123.499 43.7292 122.343C43.8524 122.273 43.9723 122.199 44.0888 122.119L44.0988 122.113C45.8772 120.922 46.9229 118.966 46.9229 116.799V96.946C46.9262 95.1391 47.8587 93.5156 49.4239 92.6154C50.9891 91.7087 52.8573 91.7087 54.4192 92.6154C57.5796 94.439 59.9907 97.2527 61.3527 100.53C62.1686 102.497 62.6115 104.63 62.6115 106.817V111.428V126.683C62.6115 133.021 66.0184 138.932 71.5066 142.105L90.369 153V152.197L71.8596 141.495H71.8496Z" fill="#56527D"/>
<path d="M121.69 134.101L90.359 152.197L71.8496 141.495C66.5612 138.441 63.3076 132.794 63.3076 126.687V106.821C63.3076 104.497 62.8347 102.247 61.9622 100.176C61.6857 99.5197 61.3694 98.8863 61.0164 98.2662C59.5411 95.7125 57.4064 93.5356 54.7622 92.0087C52.9572 90.9619 50.9358 91.0352 49.314 91.872L53.5567 89.4217L62.092 84.4877L80.3616 73.9297L80.4083 73.903C82.0667 72.9462 84.1981 72.8129 86.093 73.9063C88.7372 75.4332 90.8718 77.6101 92.3471 80.1671C93.8224 82.7241 94.635 85.6679 94.635 88.7183V108.581C94.635 114.692 97.8919 120.339 103.18 123.396L121.69 134.098V134.101Z" fill="#5962DB"/>
<path d="M62.6016 106.821C62.6016 104.63 62.1586 102.497 61.3427 100.533C59.9773 97.256 57.5663 94.4457 54.4092 92.6188C52.844 91.712 50.9757 91.712 49.4139 92.6188C47.8487 93.5222 46.9162 95.1424 46.9162 96.9493V116.802C46.9129 118.969 45.8638 120.926 44.0855 122.116L44.0755 122.123C43.9556 122.203 43.8357 122.276 43.7159 122.346L62.6016 111.431V106.821Z" fill="#2C7C95"/>
<path opacity="0.15" d="M62.6016 106.821C62.6016 104.63 62.1586 102.497 61.3427 100.533C59.9773 97.256 57.5663 94.4457 54.4092 92.6188C52.844 91.712 50.9757 91.712 49.4139 92.6188C47.8487 93.5222 46.9162 95.1424 46.9162 96.9493V116.802C46.9129 118.969 45.8638 120.926 44.0855 122.116L44.0755 122.123C43.9556 122.203 43.8357 122.276 43.7159 122.346L62.6016 111.431V106.821Z" fill="black"/>
<mask id="mask12_7_17" style="mask-type:luminance" maskUnits="userSpaceOnUse" x="20" y="53" width="41" height="70">
<path d="M60.4536 85.4345L53.5533 89.4217L49.3106 91.872C49.1741 91.942 49.0409 92.0187 48.911 92.102C47.3291 93.0788 46.2135 94.8157 46.2135 96.946V116.799C46.2102 118.729 45.291 120.342 43.9356 121.353C42.9566 122.086 41.751 122.506 40.5022 122.506C39.5564 122.506 38.584 122.263 37.6648 121.733C32.3764 118.676 29.1228 113.028 29.1228 106.917V86.3246C29.1228 83.2676 28.3102 80.3272 26.8349 77.7735C25.3597 75.2165 23.225 73.0396 20.5808 71.5127L51.9115 53.4037C54.5591 54.9339 56.6937 57.1175 58.169 59.6711C59.6443 62.2281 60.4569 65.1685 60.4569 68.2223V77.1934C60.4569 79.7604 60.4569 85.4278 60.4569 85.4278L60.4536 85.4345Z" fill="white"/>
</mask>
<g mask="url(#mask12_7_17)">
<path d="M26.1456 71.616C26.805 72.1794 27.9672 72.3028 28.8064 71.8161L51.1622 58.8944C52.0015 58.411 52.1979 57.5042 51.5419 56.9374C50.8858 56.3707 49.6303 56.3607 48.7911 56.8474L26.4253 69.7758C25.5861 70.2592 25.4895 71.0526 26.1489 71.616H26.1456Z" fill="#00EBEB"/>
<path opacity="0.4" d="M44.1721 66.7287C44.0855 66.7287 44.0023 66.6854 43.9556 66.6054C43.8857 66.4854 43.929 66.3353 44.0455 66.2653L54.4991 60.2245C54.619 60.1545 54.7689 60.1979 54.8388 60.3146C54.9087 60.4346 54.8654 60.5846 54.7489 60.6546L44.2953 66.6954C44.2554 66.7187 44.2121 66.7287 44.1721 66.7287Z" fill="black"/>
<path opacity="0.4" d="M44.978 68.0756C44.8914 68.0756 44.8082 68.0322 44.7615 67.9522C44.6916 67.8322 44.7349 67.6822 44.8515 67.6122L55.305 61.5714C55.4249 61.5014 55.5748 61.5447 55.6447 61.6614C55.7146 61.7814 55.6714 61.9314 55.5548 62.0014L45.1012 68.0422C45.0613 68.0656 45.018 68.0756 44.978 68.0756Z" fill="black"/>
<path opacity="0.4" d="M45.654 69.4791C45.5675 69.4791 45.4842 69.4357 45.4376 69.3557C45.3676 69.2357 45.4109 69.0857 45.5275 69.0157L55.9811 62.9749C56.101 62.9049 56.2508 62.9482 56.3208 63.0649C56.3907 63.1849 56.3474 63.3349 56.2308 63.4049L45.7773 69.4457C45.7373 69.4691 45.694 69.4791 45.654 69.4791Z" fill="black"/>
<path opacity="0.4" d="M46.2002 70.9393C46.1136 70.9393 46.0304 70.8959 45.9837 70.8159C45.9138 70.6959 45.9571 70.5459 46.0737 70.4759L56.5272 64.4351C56.6471 64.3684 56.797 64.4084 56.8669 64.5251C56.9368 64.6451 56.8936 64.7951 56.777 64.8652L46.3234 70.9059C46.2835 70.9293 46.2402 70.9393 46.2002 70.9393Z" fill="black"/>
<path opacity="0.4" d="M46.5965 72.3694C46.5099 72.3694 46.4267 72.3261 46.38 72.2461C46.3101 72.1261 46.3534 71.9761 46.47 71.906L56.9235 65.8653C57.0434 65.7953 57.1933 65.8386 57.2632 65.9553C57.3331 66.0753 57.2899 66.2253 57.1733 66.2953L46.7197 72.3361C46.6798 72.3594 46.6365 72.3694 46.5965 72.3694Z" fill="black"/>
<path opacity="0.4" d="M46.8662 73.9063C46.7797 73.9063 46.6964 73.863 46.6498 73.783C46.5799 73.663 46.6231 73.5129 46.7397 73.4429L57.1933 67.4021C57.3132 67.3355 57.463 67.3755 57.533 67.4922C57.6029 67.6122 57.5596 67.7622 57.443 67.8322L46.9895 73.873C46.9495 73.8963 46.9062 73.9063 46.8662 73.9063Z" fill="black"/>
<path opacity="0.4" d="M47.0128 75.5465C46.9262 75.5465 46.8429 75.5032 46.7963 75.4232C46.7264 75.3032 46.7697 75.1532 46.8862 75.0831L57.3398 69.0424C57.4597 68.9723 57.6096 69.0157 57.6795 69.1324C57.7494 69.2524 57.7061 69.4024 57.5896 69.4724L47.136 75.5132C47.096 75.5365 47.0527 75.5465 47.0128 75.5465Z" fill="black"/>
<path opacity="0.4" d="M32.11 87.2447C32.0501 87.2447 31.9901 87.2147 31.9568 87.158C31.9069 87.0747 31.9368 86.968 32.0201 86.918L57.3831 72.2594C57.4663 72.2094 57.5729 72.2394 57.6229 72.3228C57.6728 72.4061 57.6428 72.5128 57.5596 72.5628L32.1966 87.2214C32.17 87.2381 32.14 87.2447 32.11 87.2447Z" fill="black"/>
<path opacity="0.4" d="M32.11 88.8116C32.0501 88.8116 31.9901 88.7816 31.9568 88.7249C31.9069 88.6416 31.9368 88.5349 32.0201 88.4849L57.3831 73.8263C57.4663 73.7763 57.5729 73.8063 57.6229 73.8896C57.6728 73.973 57.6428 74.0797 57.5596 74.1297L32.1966 88.7882C32.17 88.8049 32.14 88.8116 32.11 88.8116Z" fill="black"/>
<path opacity="0.4" d="M32.11 90.3785C32.0501 90.3785 31.9901 90.3485 31.9568 90.2918C31.9069 90.2084 31.9368 90.1018 32.0201 90.0517L57.3831 75.3932C57.4663 75.3432 57.5729 75.3732 57.6229 75.4565C57.6728 75.5398 57.6428 75.6465 57.5596 75.6965L32.1966 90.3551C32.17 90.3718 32.14 90.3785 32.11 90.3785Z" fill="black"/>
<path opacity="0.4" d="M32.11 91.9453C32.0501 91.9453 31.9901 91.9153 31.9568 91.8587C31.9069 91.7753 31.9368 91.6686 32.0201 91.6186L57.3831 76.9601C57.4663 76.9101 57.5729 76.94 57.6229 77.0234C57.6728 77.1067 57.6428 77.2134 57.5596 77.2634L32.1966 91.922C32.17 91.9387 32.14 91.9453 32.11 91.9453Z" fill="black"/>
<path opacity="0.4" d="M32.11 84.9644C32.0501 84.9644 31.9901 84.9344 31.9568 84.8778C31.9069 84.7944 31.9369 84.6877 32.0201 84.6377L45.4476 76.8767C45.5308 76.8267 45.6374 76.8567 45.6874 76.9401C45.7373 77.0234 45.7073 77.1301 45.6241 77.1801L32.1966 84.9411C32.17 84.9578 32.14 84.9644 32.11 84.9644Z" fill="black"/>
<path d="M31.7304 75.9666C32.2632 77.03 32.6961 78.0902 32.9725 79.1437C33.2723 80.1105 33.4488 81.3006 33.5553 82.6208C33.5753 82.8608 33.7585 82.9608 33.9683 82.8375L34.7143 82.4074C34.9241 82.2874 35.0839 81.9907 35.0639 81.7507C34.9707 80.5272 34.7675 79.3304 34.4345 78.1735C34.0749 77.0201 33.6819 75.9666 33.2323 75.0998C33.1224 74.8831 32.8527 74.8131 32.6429 74.9331L31.9102 75.3565C31.7004 75.4765 31.6205 75.7499 31.7304 75.9666Z" fill="#00EBEB"/>
<path d="M33.945 72.8628C34.6277 73.923 35.2271 75.1965 35.7433 76.6967C36.1563 77.9002 36.4293 79.2937 36.5459 80.8939C36.5625 81.1339 36.7424 81.2339 36.9522 81.1139L37.6981 80.6839C37.908 80.5638 38.0678 80.2671 38.0512 80.0271C37.9479 78.6003 37.6715 77.2067 37.2352 75.8399C36.769 74.4297 36.1696 73.1662 35.4502 72.0294C35.3204 71.826 35.0406 71.7594 34.8275 71.876L34.0849 72.2894C33.8717 72.4061 33.8151 72.6628 33.945 72.8662V72.8628Z" fill="#00EBEB"/>
<path d="M39.8395 74.3297L39.1068 74.7531C38.897 74.8731 38.7905 75.1565 38.8637 75.3899C39.2034 76.4967 39.4265 77.7502 39.5298 79.1703C39.5464 79.4104 39.7262 79.5104 39.9361 79.387L40.682 78.957C40.8918 78.837 41.0517 78.5403 41.035 78.3002C40.9451 77.0201 40.7087 75.7632 40.3457 74.5297C40.2757 74.2964 40.0459 74.2097 39.8361 74.3297H39.8395Z" fill="#00EBEB"/>
<path d="M42.8234 71.3493C42.7334 71.1226 42.487 71.0393 42.2739 71.1593L41.5346 71.5794C41.3248 71.6994 41.2315 71.9761 41.3214 72.2028C41.4546 72.5395 41.5845 72.8862 41.7077 73.2496C42.1207 74.4531 42.3938 75.8466 42.5103 77.4468C42.527 77.6868 42.7068 77.7868 42.9166 77.6668L43.6626 77.2368C43.8724 77.1167 44.0322 76.82 44.0156 76.58C43.9123 75.1532 43.6359 73.7596 43.1997 72.3928C43.0831 72.0394 42.9566 71.6927 42.82 71.356L42.8234 71.3493Z" fill="#00EBEB"/>
<path opacity="0.4" d="M32.6262 81.954C32.5929 81.894 32.5163 81.874 32.4564 81.9074L32.1433 82.0874C32.0734 81.6573 31.9935 81.2306 31.8969 80.8072L32.3198 80.5639C32.3798 80.5305 32.3998 80.4538 32.3665 80.3938C32.3332 80.3338 32.2566 80.3138 32.1966 80.3472L31.8336 80.5572C31.727 80.1338 31.6105 79.7171 31.474 79.3037L31.8769 79.0703C31.9369 79.037 31.9568 78.9603 31.9235 78.9003C31.8902 78.8403 31.8136 78.8203 31.7537 78.8536L31.3907 79.0637C31.2508 78.6636 31.1043 78.2702 30.9345 77.8835C30.9311 77.8735 30.9245 77.8635 30.9211 77.8502L31.3208 77.6201C31.3807 77.5868 31.4007 77.5101 31.3674 77.4501C31.3341 77.3901 31.2575 77.3701 31.1975 77.4034L30.8212 77.6201C30.6481 77.2301 30.4549 76.84 30.2451 76.4533L30.6414 76.2233C30.7013 76.1899 30.7213 76.1133 30.688 76.0533C30.6547 75.9933 30.5781 75.9733 30.5182 76.0066L30.1252 76.2333C29.9154 75.8599 29.6856 75.4932 29.4425 75.1265L29.8888 74.8698C29.9487 74.8364 29.9687 74.7598 29.9354 74.6998C29.9021 74.6397 29.8255 74.6197 29.7655 74.6531L29.3026 74.9198C29.0396 74.5364 28.7598 74.1563 28.4601 73.783C28.4168 73.7296 28.3402 73.7196 28.2869 73.763C28.2336 73.8063 28.2237 73.883 28.2669 73.9363C28.5567 74.2997 28.8298 74.6697 29.0862 75.0431L28.6599 75.2898C28.6 75.3232 28.58 75.3998 28.6133 75.4599C28.6366 75.4999 28.6766 75.5232 28.7199 75.5232C28.7398 75.5232 28.7631 75.5165 28.7831 75.5065L29.2261 75.2498C29.4692 75.6165 29.6989 75.9832 29.9087 76.3566L29.4125 76.6433C29.3526 76.6767 29.3326 76.7534 29.3659 76.8134C29.3892 76.8534 29.4292 76.8767 29.4725 76.8767C29.4925 76.8767 29.5158 76.87 29.5358 76.86L30.0286 76.5767C30.2384 76.9634 30.4316 77.3501 30.6048 77.7435L30.0919 78.0402C30.032 78.0735 30.012 78.1502 30.0453 78.2102C30.0686 78.2502 30.1086 78.2735 30.1519 78.2735C30.1718 78.2735 30.1951 78.2669 30.2151 78.2569L30.7047 77.9735C30.7047 77.9735 30.7047 77.9735 30.7047 77.9768C30.8745 78.3736 31.0277 78.777 31.1676 79.187L30.6447 79.4904C30.5848 79.5237 30.5648 79.6004 30.5981 79.6604C30.6214 79.7004 30.6614 79.7237 30.7047 79.7237C30.7247 79.7237 30.748 79.7171 30.7679 79.7071L31.2508 79.427C31.384 79.8371 31.5006 80.2571 31.6038 80.6805L31.0843 80.9806C31.0244 81.0139 31.0044 81.0906 31.0377 81.1506C31.061 81.1906 31.101 81.2139 31.1443 81.2139C31.1642 81.2139 31.1876 81.2073 31.2075 81.1973L31.6671 80.9306C31.7637 81.3506 31.8403 81.7807 31.9069 82.2141L31.3441 82.5374C31.2841 82.5708 31.2641 82.6475 31.2975 82.7075C31.3208 82.7475 31.3607 82.7708 31.404 82.7708C31.424 82.7708 31.4473 82.7641 31.4673 82.7541L31.9468 82.4774C32.0201 83.0008 32.0701 83.5342 32.0967 84.0743C32.1 84.141 32.1533 84.191 32.2199 84.191C32.2199 84.191 32.2233 84.191 32.2266 84.191C32.2965 84.1877 32.3465 84.1276 32.3431 84.061C32.3132 83.4809 32.2566 82.9075 32.1733 82.3441L32.5663 82.1174C32.6262 82.0841 32.6462 82.0074 32.6129 81.9474L32.6262 81.954Z" fill="black"/>
<g opacity="0.15">
<path d="M33.895 106.321C33.7918 105.384 33.7551 104.434 33.7818 103.494C33.885 103.133 35.3969 97.9361 38.1777 96.3159C38.3742 96.1992 38.5607 96.1226 38.7272 96.0859C38.8071 96.0692 38.8837 96.0592 38.9536 96.0592C39.6929 96.0592 40.0226 97.086 40.3423 98.0795C40.4755 98.4929 40.6121 98.9229 40.7819 99.273C40.9717 99.673 41.2948 100.203 41.9075 100.203C42.1407 100.203 42.3904 100.126 42.6702 99.9664C44.0089 99.203 44.3919 97.136 44.8015 94.9491C44.9847 93.9623 45.1745 92.9421 45.4576 92.052C45.8638 90.7752 46.39 89.9851 47.1127 89.565C47.3458 89.4317 47.5523 89.3617 47.7321 89.3617C48.508 89.3617 48.8011 90.7452 49.0842 92.082C49.2407 92.8155 49.4005 93.5722 49.647 94.129C49.9301 94.7724 50.303 95.0858 50.7826 95.0858C51.029 95.0858 51.2921 95.0024 51.5852 94.8324C53.227 93.8823 53.7232 92.2754 54.2027 90.7185C54.6123 89.3983 54.9953 88.1515 56.0776 87.5214C56.364 87.3547 56.6371 87.2681 56.8836 87.2681C57.0068 87.2681 57.1233 87.2881 57.2366 87.3314C57.2898 87.7581 57.2898 88.0715 57.2898 88.0748L57.3065 91.2253C57.3365 91.8287 57.3764 92.3021 57.4331 92.7088L33.8884 106.317L33.895 106.321Z" fill="#00EBEB"/>
<path d="M57.6295 92.8055C57.5596 92.3354 57.5163 91.802 57.4897 91.2286L57.473 88.0815C57.473 88.0815 57.473 87.7081 57.4064 87.2147C57.2499 87.1414 57.0767 87.0981 56.8902 87.0981C56.6238 87.0981 56.3274 87.1814 55.9977 87.3748C53.5833 88.7816 54.5058 92.9521 51.5019 94.6857C51.2288 94.8424 50.9924 94.9157 50.7892 94.9157C50.343 94.9157 50.0399 94.5757 49.8135 94.0623C49.1075 92.4687 49.1275 89.1883 47.7354 89.1883C47.5323 89.1883 47.2992 89.2583 47.0294 89.415C46.1702 89.9117 45.654 90.8652 45.2944 92.002C44.4019 94.8091 44.4518 98.7529 42.5869 99.8164C42.3271 99.9631 42.104 100.03 41.9109 100.03C41.4679 100.03 41.1749 99.6864 40.9418 99.1996C40.3656 97.9895 40.1625 95.8825 38.957 95.8825C38.8737 95.8825 38.7871 95.8925 38.6905 95.9125C38.5107 95.9525 38.3109 96.0326 38.0911 96.1626C35.1239 97.8895 33.6086 103.467 33.6086 103.467C33.5753 104.537 33.6253 105.584 33.7518 106.604L34.0948 106.404C34.0782 106.307 34.0615 106.221 34.0415 106.031C33.9616 105.197 33.9316 104.354 33.9583 103.517C34.0982 103.027 35.5868 98.0261 38.2709 96.4626C38.4508 96.3559 38.6206 96.2859 38.7705 96.2526C38.8371 96.2392 38.9003 96.2292 38.957 96.2292C39.5664 96.2292 39.8761 97.196 40.1792 98.1295C40.3157 98.5495 40.4522 98.9829 40.6254 99.3463C40.7453 99.5997 41.1149 100.376 41.9109 100.376C42.1773 100.376 42.4537 100.293 42.7601 100.116C44.1688 99.313 44.5617 97.2094 44.9747 94.9791C45.1578 93.9956 45.3477 92.9821 45.6274 92.102C46.0204 90.8685 46.5199 90.1084 47.2026 89.7117C47.4091 89.5917 47.5889 89.5317 47.7354 89.5317C48.3682 89.5317 48.6612 90.9019 48.9177 92.112C49.0742 92.8521 49.2374 93.6189 49.4905 94.1956C49.8002 94.9024 50.2364 95.2591 50.7859 95.2591C51.0623 95.2591 51.3554 95.1691 51.6751 94.9824C53.3768 93.999 53.9063 92.2821 54.3759 90.7685C54.7722 89.4817 55.1485 88.2682 56.1742 87.6715C56.434 87.5181 56.6771 87.4414 56.8902 87.4414C56.9568 87.4414 57.0201 87.4481 57.0834 87.4614C57.12 87.8181 57.12 88.0682 57.12 88.0748L57.1367 91.2386C57.1633 91.782 57.1999 92.2254 57.2466 92.6121C57.2699 92.7788 57.2932 92.9055 57.3132 92.9788L57.6262 92.7988" fill="black"/>
</g>
<g opacity="0.4">
<path d="M33.6086 101.877V103.467C33.5786 104.554 33.6219 105.584 33.7518 106.604L57.6262 92.8054C57.5563 92.3354 57.513 91.802 57.4863 91.2286L57.4697 88.0815C57.4697 88.0815 57.4697 83.3809 54.4858 85.1044C51.3487 86.918 52.2379 92.6721 50.01 93.9589C47.7621 95.2558 48.518 90.1184 45.5342 91.8453C42.5503 93.5689 44.0422 97.4094 41.0583 99.1329C38.0745 100.856 39.5664 92.1587 36.5825 93.8822C33.5986 95.6058 33.5986 99.8897 33.6086 101.877Z" fill="#00EBEB"/>
</g>
<path opacity="0.4" d="M32.5163 109.031C32.473 109.031 32.433 109.008 32.4097 108.968C32.3764 108.908 32.3964 108.831 32.4564 108.798L57.8527 94.2423C57.9126 94.209 57.9892 94.229 58.0225 94.289C58.0558 94.349 58.0358 94.4257 57.9759 94.459L32.5796 109.014C32.5596 109.024 32.5396 109.031 32.5163 109.031Z" fill="black"/>
<path d="M36.5858 94.7224C36.5159 94.7224 36.4626 94.6657 36.4626 94.599V94.349C36.4626 94.279 36.5192 94.2256 36.5858 94.2256C36.6524 94.2256 36.7091 94.2823 36.7091 94.349V94.599C36.7091 94.669 36.6524 94.7224 36.5858 94.7224Z" fill="white"/>
<path d="M36.6558 104.284C36.5925 104.284 36.5392 104.234 36.5325 104.17C36.5192 104.01 36.5059 103.85 36.4959 103.69C36.4926 103.62 36.5425 103.564 36.6125 103.557C36.6924 103.547 36.739 103.604 36.7457 103.674C36.7557 103.834 36.769 103.99 36.7823 104.147C36.789 104.217 36.739 104.277 36.6691 104.284C36.6658 104.284 36.6624 104.284 36.6591 104.284H36.6558ZM36.5992 103.33C36.5325 103.33 36.4759 103.277 36.4759 103.207C36.4759 103.07 36.4726 102.91 36.4693 102.727C36.4693 102.657 36.5226 102.603 36.5925 102.6C36.6658 102.587 36.7157 102.653 36.719 102.723C36.719 102.903 36.719 103.063 36.7257 103.2C36.7257 103.27 36.6724 103.327 36.6025 103.327L36.5992 103.33ZM36.5925 102.373C36.5259 102.373 36.4693 102.317 36.4693 102.25V101.77C36.4693 101.7 36.5226 101.647 36.5892 101.647C36.6591 101.647 36.7124 101.703 36.7124 101.77V102.247C36.7124 102.317 36.6591 102.37 36.5925 102.373ZM36.5892 101.417C36.5192 101.417 36.4659 101.36 36.4659 101.293V100.817C36.4659 100.746 36.5192 100.693 36.5892 100.693C36.6591 100.693 36.7124 100.75 36.7124 100.817V101.293C36.7124 101.363 36.6591 101.417 36.5892 101.417ZM36.5892 100.46C36.5192 100.46 36.4659 100.403 36.4659 100.336V99.8597C36.4659 99.7897 36.5226 99.7364 36.5892 99.7364C36.6558 99.7364 36.7124 99.793 36.7124 99.8597V100.336C36.7124 100.406 36.6558 100.46 36.5892 100.46ZM36.5892 99.503C36.5192 99.503 36.4659 99.4463 36.4659 99.3796V98.9029C36.4659 98.8329 36.5226 98.7796 36.5892 98.7796C36.6558 98.7796 36.7124 98.8362 36.7124 98.9029V99.3796C36.7124 99.4497 36.6558 99.503 36.5892 99.503ZM36.5892 98.5462C36.5192 98.5462 36.4659 98.4895 36.4659 98.4229V97.9461C36.4659 97.8761 36.5226 97.8228 36.5892 97.8228C36.6558 97.8228 36.7124 97.8794 36.7124 97.9461V98.4229C36.7124 98.4929 36.6558 98.5462 36.5892 98.5462ZM36.5892 97.5894C36.5192 97.5894 36.4659 97.5327 36.4659 97.4661V96.9893C36.4659 96.9193 36.5226 96.866 36.5892 96.866C36.6558 96.866 36.7124 96.9227 36.7124 96.9893V97.4694C36.7124 97.5394 36.6558 97.5927 36.5892 97.5927V97.5894ZM36.5892 96.6326C36.5192 96.6326 36.4659 96.5759 36.4659 96.5093V96.0325C36.4659 95.9625 36.5226 95.9092 36.5892 95.9092C36.6558 95.9092 36.7124 95.9659 36.7124 96.0325V96.5126C36.7124 96.5826 36.6558 96.636 36.5892 96.636V96.6326ZM36.5892 95.6758C36.5192 95.6758 36.4659 95.6192 36.4659 95.5525V95.0758C36.4659 95.0057 36.5226 94.9491 36.5925 94.9491C36.6624 94.9491 36.7157 95.0024 36.7157 95.0724V95.5491C36.7157 95.6191 36.6591 95.6725 36.5892 95.6725V95.6758Z" fill="white"/>
<path d="M36.7357 105.004C36.6758 105.004 36.6225 104.957 36.6125 104.897C36.6025 104.814 36.5925 104.73 36.5825 104.647C36.5759 104.58 36.6225 104.517 36.6924 104.51C36.7623 104.504 36.8223 104.55 36.8289 104.62C36.8389 104.7 36.8489 104.784 36.8589 104.864C36.8689 104.93 36.819 104.994 36.7524 105.004C36.7457 105.004 36.7424 105.004 36.7357 105.004Z" fill="white"/>
<path d="M54.4891 85.4778C54.4192 85.4778 54.3659 85.4212 54.3659 85.3545V85.1045C54.3659 85.0378 54.4225 84.9811 54.4891 84.9811C54.5591 84.9811 54.6124 85.0378 54.6124 85.1045V85.3545C54.6124 85.4245 54.5557 85.4778 54.4891 85.4778Z" fill="white"/>
<path d="M54.5624 95.0391C54.4991 95.0391 54.4458 94.9891 54.4392 94.9257C54.4259 94.7657 54.4125 94.6057 54.4026 94.4457C54.3992 94.3757 54.4492 94.319 54.5191 94.3123C54.5957 94.309 54.6457 94.359 54.6523 94.429C54.6623 94.589 54.6756 94.7457 54.689 94.9024C54.6956 94.9724 54.6457 95.0324 54.5757 95.0357C54.5724 95.0357 54.5691 95.0357 54.5657 95.0357L54.5624 95.0391ZM54.5058 94.0856C54.4392 94.0856 54.3826 94.0323 54.3826 93.9623C54.3826 93.8256 54.3792 93.6656 54.3759 93.4822C54.3759 93.4122 54.4292 93.3589 54.4991 93.3555C54.5657 93.3555 54.6223 93.4122 54.6223 93.4789C54.6223 93.6589 54.6223 93.8189 54.629 93.9556C54.629 94.0256 54.5757 94.0823 54.5058 94.0823V94.0856ZM54.4958 93.1288C54.4292 93.1288 54.3726 93.0722 54.3726 93.0055V92.5254C54.3726 92.4554 54.4259 92.4021 54.4925 92.4021C54.5624 92.4021 54.6157 92.4587 54.6157 92.5254V93.0021C54.6157 93.0722 54.5624 93.1255 54.4958 93.1288ZM54.4925 92.172C54.4225 92.172 54.3692 92.1154 54.3692 92.0487V91.572C54.3692 91.5019 54.4225 91.4486 54.4925 91.4486C54.5624 91.4486 54.6157 91.5053 54.6157 91.572V92.0487C54.6157 92.1187 54.5624 92.172 54.4925 92.172ZM54.4925 91.2152C54.4225 91.2152 54.3692 91.1586 54.3692 91.0919V90.6152C54.3692 90.5452 54.4259 90.4918 54.4925 90.4918C54.5591 90.4918 54.6157 90.5485 54.6157 90.6152V91.0919C54.6157 91.1619 54.5591 91.2152 54.4925 91.2152ZM54.4925 90.2584C54.4225 90.2584 54.3692 90.2018 54.3692 90.1351V89.6584C54.3692 89.5884 54.4259 89.535 54.4925 89.535C54.5591 89.535 54.6157 89.5917 54.6157 89.6584V90.1351C54.6157 90.2051 54.5591 90.2584 54.4925 90.2584ZM54.4925 89.3017C54.4225 89.3017 54.3692 89.245 54.3692 89.1783V88.7016C54.3692 88.6316 54.4259 88.5782 54.4925 88.5782C54.5591 88.5782 54.6157 88.6349 54.6157 88.7016V89.1783C54.6157 89.2483 54.5591 89.3017 54.4925 89.3017ZM54.4925 88.3449C54.4225 88.3449 54.3692 88.2882 54.3692 88.2215V87.7448C54.3692 87.6748 54.4259 87.6214 54.4925 87.6214C54.5591 87.6214 54.6157 87.6781 54.6157 87.7448V88.2249C54.6157 88.2949 54.5591 88.3482 54.4925 88.3482V88.3449ZM54.4925 87.3881C54.4225 87.3881 54.3692 87.3314 54.3692 87.2647V86.788C54.3692 86.718 54.4259 86.6646 54.4925 86.6646C54.5591 86.6646 54.6157 86.7213 54.6157 86.788V87.2681C54.6157 87.3381 54.5591 87.3914 54.4925 87.3914V87.3881ZM54.4925 86.4313C54.4225 86.4313 54.3692 86.3746 54.3692 86.3079V85.8312C54.3692 85.7612 54.4259 85.7079 54.4925 85.7079C54.5591 85.7079 54.6157 85.7645 54.6157 85.8312V86.3113C54.6157 86.3813 54.5591 86.4346 54.4925 86.4346V86.4313Z" fill="white"/>
<path d="M54.6423 95.7592C54.5824 95.7592 54.5291 95.7125 54.5191 95.6525C54.5091 95.5692 54.4991 95.4858 54.4891 95.4058C54.4825 95.3391 54.5291 95.2758 54.5957 95.2658C54.669 95.2558 54.7256 95.3058 54.7356 95.3725C54.7456 95.4558 54.7555 95.5358 54.7655 95.6158C54.7755 95.6825 54.7256 95.7459 54.659 95.7559C54.6523 95.7559 54.649 95.7559 54.6423 95.7559V95.7592Z" fill="white"/>
<path d="M45.5376 92.6488C45.4677 92.6488 45.4144 92.5921 45.4144 92.5254V92.2754C45.4144 92.2054 45.471 92.152 45.5376 92.152C45.6042 92.152 45.6608 92.2087 45.6608 92.2754V92.5254C45.6608 92.5954 45.6042 92.6488 45.5376 92.6488Z" fill="white"/>
<path d="M45.6074 99.1763C45.5441 99.1763 45.4909 99.1296 45.4842 99.0629C45.4709 98.9062 45.4576 98.7529 45.4476 98.5929C45.4442 98.5229 45.4942 98.4662 45.5641 98.4595C45.6441 98.4528 45.6907 98.5062 45.6973 98.5762C45.7073 98.7295 45.7206 98.8862 45.734 99.0363C45.7406 99.1063 45.6907 99.1663 45.6207 99.1729C45.6174 99.1729 45.6141 99.1729 45.6107 99.1729L45.6074 99.1763ZM45.5475 98.2462C45.4809 98.2462 45.4243 98.1928 45.4243 98.1228L45.4176 97.6561C45.4176 97.5861 45.4709 97.5294 45.5408 97.5294C45.6074 97.5294 45.664 97.5827 45.664 97.6527L45.6707 98.1195C45.6707 98.1895 45.6174 98.2428 45.5475 98.2462ZM45.5375 97.3127C45.4709 97.3127 45.4143 97.256 45.4143 97.1893V96.7226C45.4143 96.6526 45.4675 96.5993 45.5342 96.5959C45.6041 96.5959 45.6574 96.6526 45.6574 96.7193V97.186C45.6574 97.256 45.6041 97.3094 45.5375 97.3127ZM45.5342 96.3792C45.4642 96.3792 45.4109 96.3226 45.4109 96.2559V95.7892C45.4109 95.7192 45.4642 95.6658 45.5342 95.6658C45.6041 95.6658 45.6574 95.7225 45.6574 95.7892V96.2559C45.6574 96.3259 45.6041 96.3792 45.5342 96.3792ZM45.5342 95.4458C45.4642 95.4458 45.4109 95.3891 45.4109 95.3224V94.8557C45.4109 94.7857 45.4675 94.7324 45.5342 94.7324C45.6008 94.7324 45.6574 94.789 45.6574 94.8557V95.3224C45.6574 95.3924 45.6008 95.4458 45.5342 95.4458ZM45.5342 94.5123C45.4642 94.5123 45.4109 94.4557 45.4109 94.389V93.9223C45.4109 93.8522 45.4675 93.7989 45.5342 93.7989C45.6008 93.7989 45.6574 93.8556 45.6574 93.9223V94.389C45.6574 94.459 45.6008 94.5123 45.5342 94.5123ZM45.5342 93.5789C45.4642 93.5789 45.4109 93.5222 45.4109 93.4555V92.9888C45.4109 92.9188 45.4675 92.8654 45.5342 92.8654C45.6008 92.8654 45.6574 92.9221 45.6574 92.9888V93.4555C45.6574 93.5255 45.6008 93.5789 45.5342 93.5789Z" fill="white"/>
<path d="M45.6873 99.8864C45.6274 99.8864 45.5741 99.8397 45.5641 99.7797C45.5541 99.6964 45.5441 99.613 45.5342 99.5297C45.5275 99.463 45.5741 99.3997 45.6441 99.393C45.7107 99.383 45.7739 99.433 45.7806 99.503C45.7906 99.5864 45.8006 99.6664 45.8106 99.7497C45.8206 99.8164 45.7706 99.8797 45.704 99.8897C45.6973 99.8897 45.694 99.8897 45.6873 99.8897V99.8864Z" fill="white"/>
<path opacity="0.4" d="M36.5825 93.3922C36.819 93.2555 37.0121 93.3455 37.0121 93.5956C37.0121 93.8456 36.819 94.159 36.5825 94.2956C36.3461 94.4323 36.1529 94.3423 36.1529 94.0923C36.1529 93.8423 36.3461 93.5289 36.5825 93.3922Z" fill="black"/>
<path opacity="0.4" d="M45.5375 91.3186C45.7739 91.1819 45.9671 91.2719 45.9671 91.5219C45.9671 91.772 45.7739 92.0854 45.5375 92.222C45.301 92.3587 45.1079 92.2687 45.1079 92.0187C45.1079 91.7686 45.301 91.4553 45.5375 91.3186Z" fill="black"/>
<path opacity="0.4" d="M54.4891 84.6511C54.7256 84.5144 54.9187 84.6044 54.9187 84.8544C54.9187 85.1044 54.7256 85.4178 54.4891 85.5545C54.2527 85.6912 54.0595 85.6012 54.0595 85.3511C54.0595 85.1011 54.2527 84.7877 54.4891 84.6511Z" fill="black"/>
<path opacity="0.4" d="M32.6828 96.2859C32.7428 96.2526 32.7627 96.1759 32.7294 96.1159C32.6961 96.0559 32.6195 96.0359 32.5596 96.0692L32.2366 96.2559V94.9724L32.6861 94.7124C32.7461 94.679 32.7661 94.6023 32.7328 94.5423C32.6995 94.4823 32.6229 94.4623 32.5629 94.4957L32.2366 94.6824V93.3322C32.2366 93.2622 32.18 93.2088 32.1134 93.2088C32.0467 93.2088 31.9901 93.2655 31.9901 93.3322V94.829L31.5406 95.0891C31.4806 95.1224 31.4606 95.1991 31.4939 95.2591C31.5172 95.2991 31.5572 95.3224 31.6005 95.3224C31.6205 95.3224 31.6438 95.3158 31.6638 95.3058L31.9901 95.1157V96.3993L31.5406 96.6593C31.4806 96.6926 31.4606 96.7693 31.4939 96.8293C31.5172 96.8693 31.5572 96.8927 31.6005 96.8927C31.6205 96.8927 31.6438 96.886 31.6638 96.876L31.9901 96.686V97.9695L31.5406 98.2295C31.4806 98.2628 31.4606 98.3395 31.4939 98.3995C31.5172 98.4395 31.5572 98.4629 31.6005 98.4629C31.6205 98.4629 31.6438 98.4562 31.6638 98.4462L31.9901 98.2562V99.5397L31.5406 99.7997C31.4806 99.833 31.4606 99.9097 31.4939 99.9697C31.5172 100.01 31.5572 100.033 31.6005 100.033C31.6205 100.033 31.6438 100.026 31.6638 100.016L31.9901 99.8264V101.11L31.5406 101.37C31.4806 101.403 31.4606 101.48 31.4939 101.54C31.5172 101.58 31.5572 101.603 31.6005 101.603C31.6205 101.603 31.6438 101.597 31.6638 101.587L31.9901 101.397V102.68L31.5372 102.94C31.4773 102.973 31.4573 103.05 31.4906 103.11C31.5139 103.15 31.5539 103.173 31.5972 103.173C31.6171 103.173 31.6405 103.167 31.6604 103.157L31.9868 102.967V104.25L31.5339 104.51C31.4739 104.544 31.454 104.62 31.4873 104.68C31.5106 104.72 31.5505 104.744 31.5938 104.744C31.6138 104.744 31.6371 104.737 31.6571 104.727L31.9835 104.54C31.9768 104.967 31.9801 105.394 31.9968 105.814L31.5306 106.084C31.4706 106.117 31.4506 106.194 31.4839 106.254C31.5072 106.294 31.5472 106.317 31.5905 106.317C31.6105 106.317 31.6338 106.311 31.6538 106.301L32.0101 106.094C32.0368 106.561 32.0767 107.024 32.1333 107.481C32.14 107.544 32.1966 107.591 32.2566 107.591C32.2632 107.591 32.2665 107.591 32.2732 107.591C32.3398 107.581 32.3898 107.521 32.3798 107.451C32.3165 106.957 32.2732 106.461 32.2499 105.957L32.6762 105.71C32.7361 105.677 32.7561 105.6 32.7228 105.54C32.6895 105.48 32.6129 105.46 32.5529 105.494L32.2399 105.674C32.2232 105.25 32.2199 104.824 32.2299 104.397L32.6762 104.137C32.7361 104.104 32.7561 104.027 32.7228 103.967C32.6895 103.907 32.6129 103.887 32.5529 103.92L32.2299 104.107V102.823L32.6762 102.563C32.7361 102.53 32.7561 102.453 32.7228 102.393C32.6895 102.333 32.6129 102.313 32.5529 102.347L32.2299 102.533V101.25L32.6762 100.99C32.7361 100.957 32.7561 100.88 32.7228 100.82C32.6895 100.76 32.6129 100.74 32.5529 100.773L32.2299 100.96V99.6763L32.6762 99.4163C32.7361 99.383 32.7561 99.3063 32.7228 99.2463C32.6895 99.1863 32.6129 99.1663 32.5529 99.1996L32.2299 99.3863V98.1028L32.6795 97.8428C32.7394 97.8094 32.7594 97.7328 32.7261 97.6728C32.6928 97.6127 32.6162 97.5927 32.5563 97.6261L32.2332 97.8128V96.5293L32.6828 96.2692V96.2859Z" fill="black"/>
<path d="M63.7971 103.987L39.9427 117.772C39.1035 118.255 37.888 118.199 37.2885 117.582C36.6891 116.962 36.9322 116.022 37.7714 115.535L61.6192 101.753C62.4584 101.27 63.574 101.427 64.1768 102.043C64.7795 102.66 64.6363 103.504 63.7971 103.987Z" fill="#00EBEB"/>
<path opacity="0.4" d="M32.9592 110.691C32.8993 110.691 32.8393 110.661 32.806 110.604C32.7561 110.521 32.7861 110.414 32.8693 110.364L59.7376 94.8357C59.8208 94.7857 59.9274 94.8157 59.9773 94.8991C60.0273 94.9824 59.9973 95.0891 59.9141 95.1391L33.0458 110.668C33.0192 110.684 32.9892 110.691 32.9592 110.691Z" fill="black"/>
<path opacity="0.4" d="M33.5087 112.148C33.4488 112.148 33.3888 112.118 33.3555 112.061C33.3056 111.978 33.3355 111.871 33.4188 111.821L60.2904 96.2892C60.3736 96.2392 60.4802 96.2692 60.5302 96.3526C60.5801 96.4359 60.5501 96.5426 60.4669 96.5926L33.5953 112.125C33.5687 112.141 33.5387 112.148 33.5087 112.148Z" fill="black"/>
<path opacity="0.4" d="M34.1848 113.542C34.1248 113.542 34.0649 113.512 34.0316 113.455C33.9816 113.371 34.0116 113.265 34.0948 113.215L60.9698 97.6828C61.053 97.6328 61.1596 97.6628 61.2095 97.7461C61.2595 97.8295 61.2295 97.9361 61.1463 97.9861L34.2713 113.518C34.2447 113.535 34.2147 113.542 34.1848 113.542Z" fill="black"/>
<path opacity="0.4" d="M34.9873 114.868C34.9274 114.868 34.8674 114.838 34.8341 114.782C34.7842 114.698 34.8142 114.592 34.8974 114.542L61.7757 99.0063C61.8589 98.9563 61.9655 98.9863 62.0154 99.0696C62.0654 99.1529 62.0354 99.2596 61.9522 99.3096L35.0739 114.845C35.0473 114.862 35.0173 114.868 34.9873 114.868Z" fill="black"/>
</g>
<path d="M58.4421 89.145L80.5515 76.37C81.3907 75.8866 82.7261 75.5966 83.4754 75.8999C84.2281 76.2033 84.0849 76.9901 83.2456 77.4735L60.8798 90.3985C60.0406 90.8819 58.8484 90.9352 58.1824 90.5718C57.513 90.2118 57.6062 89.6284 58.4454 89.1417L58.4421 89.145Z" fill="#00EBEB"/>
<path opacity="0.4" d="M61.0064 92.6588C60.9465 92.6588 60.8865 92.6288 60.8532 92.5721C60.8032 92.4888 60.8332 92.3821 60.9165 92.3321L86.3994 77.6068C86.4826 77.5568 86.5892 77.5868 86.6391 77.6702C86.6891 77.7535 86.6591 77.8602 86.5759 77.9102L61.093 92.6354C61.0663 92.6521 61.0364 92.6588 61.0064 92.6588Z" fill="black"/>
<path opacity="0.4" d="M62.0621 93.7989C62.0021 93.7989 61.9422 93.7689 61.9089 93.7123C61.8589 93.6289 61.8889 93.5222 61.9722 93.4722L87.495 78.7236C87.5783 78.6736 87.6848 78.7036 87.7348 78.787C87.7847 78.8703 87.7548 78.977 87.6715 79.027L62.1487 93.7756C62.122 93.7923 62.092 93.7989 62.0621 93.7989Z" fill="black"/>
<path opacity="0.4" d="M66.2881 106.841C66.2182 106.841 66.1649 106.784 66.1649 106.717V105.364C66.1716 104.684 66.1649 104.115 66.1449 103.657L66.1383 103.544C66.0417 101.893 65.7353 100.34 65.2291 98.9296C64.7862 97.5928 64.0336 96.2793 62.9313 94.9124C62.888 94.8591 62.8979 94.7824 62.9512 94.7391C63.0045 94.6957 63.0844 94.7057 63.1244 94.7591C64.2467 96.1493 65.0093 97.4894 65.4622 98.8529C65.9751 100.28 66.2848 101.857 66.3847 103.534L66.3914 103.65C66.4113 104.113 66.4202 104.686 66.418 105.37V106.724C66.4147 106.794 66.3581 106.847 66.2881 106.847V106.841Z" fill="black"/>
<path d="M66.0317 96.1926C65.9185 95.9926 65.7953 95.7959 65.6654 95.6058C65.5288 95.4058 65.5821 95.1491 65.7919 95.0291L75.5295 89.4017C75.7393 89.2817 76.0224 89.3417 76.1489 89.5484C76.2655 89.7417 76.3754 89.9418 76.4853 90.1518C76.5952 90.3685 76.5086 90.6419 76.2988 90.7652L66.6145 96.3626C66.4047 96.4826 66.1483 96.4059 66.0284 96.1959L66.0317 96.1926Z" fill="#00EBEB"/>
<path d="M66.9808 98.4395C67.0541 98.6629 67.1207 98.8863 67.1806 99.103C67.2439 99.3363 67.4604 99.4297 67.6702 99.3097L90.7719 85.9612C90.9818 85.8412 91.105 85.5512 91.0417 85.3178C90.9784 85.0878 90.9118 84.8644 90.8452 84.6511C90.7719 84.421 90.5355 84.3344 90.3257 84.4544L67.2173 97.8061C67.0075 97.9261 66.9042 98.2095 66.9775 98.4395H66.9808Z" fill="#00EBEB"/>
<path opacity="0.7" d="M66.9808 98.4395C67.0541 98.6629 67.1207 98.8863 67.1806 99.103C67.2439 99.3363 67.4604 99.4297 67.6702 99.3097L90.7719 85.9612C90.9818 85.8412 91.105 85.5512 91.0417 85.3178C90.9784 85.0878 90.9118 84.8644 90.8452 84.6511C90.7719 84.421 90.5355 84.3344 90.3257 84.4544L67.2173 97.8061C67.0075 97.9261 66.9042 98.2095 66.9775 98.4395H66.9808Z" fill="white"/>
<path d="M67.6535 101.517C67.6835 101.763 67.7101 102.003 67.7268 102.233C67.7468 102.473 67.9233 102.573 68.1331 102.453L83.7851 93.4089C83.9949 93.2889 84.1548 92.9922 84.1348 92.7521C84.1148 92.5121 84.0915 92.2721 84.0615 92.0354C84.0316 91.7953 83.8317 91.6987 83.6219 91.8187L67.9765 100.86C67.7667 100.98 67.6235 101.273 67.6535 101.513V101.517Z" fill="#00EBEB"/>
<path opacity="0.15" d="M67.6535 101.517C67.6835 101.763 67.7101 102.003 67.7268 102.233C67.7468 102.473 67.9233 102.573 68.1331 102.453L83.7851 93.4089C83.9949 93.2889 84.1548 92.9922 84.1348 92.7521C84.1148 92.5121 84.0915 92.2721 84.0615 92.0354C84.0316 91.7953 83.8317 91.6987 83.6219 91.8187L67.9765 100.86C67.7667 100.98 67.6235 101.273 67.6535 101.513V101.517Z" fill="black"/>
<path d="M67.7801 104.71V105.414C67.7801 105.657 67.9499 105.754 68.1597 105.634L74.8601 101.763C75.0699 101.643 75.2398 101.347 75.2398 101.107V100.403C75.2398 100.16 75.0699 100.063 74.8601 100.183L68.1597 104.054C67.9499 104.174 67.7801 104.47 67.7801 104.71Z" fill="#00EBEB"/>
<path opacity="0.5" d="M67.7801 104.71V105.414C67.7801 105.657 67.9499 105.754 68.1597 105.634L74.8601 101.763C75.0699 101.643 75.2398 101.347 75.2398 101.107V100.403C75.2398 100.16 75.0699 100.063 74.8601 100.183L68.1597 104.054C67.9499 104.174 67.7801 104.47 67.7801 104.71Z" fill="white"/>
<path opacity="0.4" d="M91.6478 93.5722C91.5779 93.5722 91.5246 93.6289 91.5246 93.6956V94.299L89.7396 95.3325V94.8824C89.7396 94.8124 89.683 94.7591 89.6163 94.7591C89.5497 94.7591 89.4931 94.8157 89.4931 94.8824V95.4758L87.7081 96.5093V96.0659C87.7081 95.9959 87.6515 95.9425 87.5849 95.9425C87.5183 95.9425 87.4617 95.9992 87.4617 96.0659V96.6526L85.6767 97.6861V97.2494C85.6767 97.1794 85.6201 97.126 85.5535 97.126C85.4869 97.126 85.4303 97.1827 85.4303 97.2494V97.8295L83.6453 98.8629V98.4362C83.6453 98.3662 83.5886 98.3129 83.522 98.3129C83.4554 98.3129 83.3988 98.3695 83.3988 98.4362V99.0063L81.6138 100.04V99.6197C81.6138 99.5497 81.5572 99.4963 81.4906 99.4963C81.424 99.4963 81.3674 99.553 81.3674 99.6197V100.183L79.5824 101.217V100.807C79.5824 100.737 79.5258 100.683 79.4592 100.683C79.3926 100.683 79.3359 100.74 79.3359 100.807V101.36L77.5509 102.393V101.99C77.5509 101.92 77.4943 101.867 77.4277 101.867C77.3611 101.867 77.3045 101.923 77.3045 101.99V102.537L75.5195 103.57V103.177C75.5195 103.107 75.4629 103.053 75.3963 103.053C75.3297 103.053 75.2731 103.11 75.2731 103.177V103.717L73.4881 104.75V104.364C73.4881 104.294 73.4315 104.24 73.3648 104.24C73.2982 104.24 73.2416 104.297 73.2416 104.364V104.894L71.4566 105.927V105.547C71.4566 105.477 71.4 105.424 71.3334 105.424C71.2668 105.424 71.2102 105.48 71.2102 105.547V106.071L69.4252 107.104V106.734C69.4252 106.664 69.3686 106.611 69.302 106.611C69.2354 106.611 69.1788 106.667 69.1788 106.734V107.247L67.6302 108.144C67.5703 108.177 67.5503 108.254 67.5836 108.314C67.6069 108.354 67.6468 108.378 67.6901 108.378C67.7101 108.378 67.7334 108.371 67.7534 108.361L69.1788 107.537V108.041C69.1788 108.111 69.2354 108.164 69.302 108.164C69.3686 108.164 69.4252 108.107 69.4252 108.041V107.391L71.2102 106.357V106.854C71.2102 106.924 71.2668 106.977 71.3334 106.977C71.4 106.977 71.4566 106.921 71.4566 106.854V106.214L73.2416 105.18V105.67C73.2416 105.74 73.2982 105.794 73.3648 105.794C73.4315 105.794 73.4881 105.737 73.4881 105.67V105.037L75.2731 104.004V104.484C75.2731 104.554 75.3297 104.607 75.3963 104.607C75.4629 104.607 75.5195 104.55 75.5195 104.484V103.86L77.3045 102.827V103.3C77.3045 103.37 77.3611 103.424 77.4277 103.424C77.4943 103.424 77.5509 103.367 77.5509 103.3V102.683L79.3359 101.65V102.113C79.3359 102.183 79.3926 102.237 79.4592 102.237C79.5258 102.237 79.5824 102.18 79.5824 102.113V101.507L81.3674 100.473V100.93C81.3674 101 81.424 101.053 81.4906 101.053C81.5572 101.053 81.6138 100.997 81.6138 100.93V100.33L83.3988 99.2963V99.7464C83.3988 99.8164 83.4554 99.8697 83.522 99.8697C83.5886 99.8697 83.6453 99.8131 83.6453 99.7464V99.153L85.4303 98.1195V98.5596C85.4303 98.6296 85.4869 98.6829 85.5535 98.6829C85.6201 98.6829 85.6767 98.6262 85.6767 98.5596V97.9762L87.4617 96.9427V97.3761C87.4617 97.4461 87.5183 97.4994 87.5849 97.4994C87.6515 97.4994 87.7081 97.4427 87.7081 97.3761V96.7993L89.4931 95.7659V96.1892C89.4931 96.2593 89.5497 96.3126 89.6163 96.3126C89.683 96.3126 89.7396 96.2559 89.7396 96.1892V95.6225L91.5246 94.589V95.0058C91.5246 95.0758 91.5812 95.1291 91.6478 95.1291C91.7144 95.1291 91.771 95.0724 91.771 95.0058V93.6989C91.771 93.6289 91.7144 93.5756 91.6478 93.5756V93.5722Z" fill="black"/>
<path d="M72.0661 109.971C71.6564 110.058 71.2169 110.231 70.764 110.498C68.2929 111.951 66.2915 115.585 66.2915 118.619C66.2915 118.699 66.2915 118.776 66.2948 118.856L70.7606 116.809L72.0661 109.971Z" fill="#00EBEB"/>
<path d="M72.0661 109.971L70.7606 116.809L75.1898 114.235C75.2198 113.958 75.2398 113.682 75.2398 113.408C75.2398 110.915 73.9044 109.588 72.0661 109.971Z" fill="#00EBEB"/>
<path d="M74.6303 116.542C74.9134 115.782 75.1099 114.998 75.1898 114.235L70.7606 116.809L74.627 116.542H74.6303Z" fill="#00EBEB"/>
<path d="M66.2981 118.856C66.4014 121.723 68.3629 122.919 70.7673 121.529C72.4191 120.576 73.8611 118.639 74.6304 116.542L70.764 116.809L66.2981 118.856Z" fill="#00EBEB"/>
<path opacity="0.7" d="M72.0661 109.971L70.7606 116.809L75.1898 114.235C75.2198 113.958 75.2398 113.682 75.2398 113.408C75.2398 110.915 73.9044 109.588 72.0661 109.971Z" fill="white"/>
<path opacity="0.15" d="M74.6303 116.542C74.9134 115.782 75.1099 114.998 75.1898 114.235L70.7606 116.809L74.627 116.542H74.6303Z" fill="black"/>
<path opacity="0.5" d="M66.2981 118.856C66.4013 121.723 68.3628 122.919 70.7673 121.529C72.4191 120.576 73.8611 118.639 74.6303 116.542L70.7639 116.809L66.2981 118.856Z" fill="white"/>
<path d="M72.0661 109.971C71.6564 110.058 71.2169 110.231 70.764 110.498C68.2929 111.951 66.2915 115.585 66.2915 118.619C66.2915 118.699 66.2915 118.776 66.2948 118.856L70.7606 116.809L72.0661 109.971Z" stroke="white" stroke-width="1.05" stroke-linecap="round" stroke-linejoin="round"/>
<path d="M72.0661 109.971L70.7606 116.809L75.1898 114.235C75.2198 113.958 75.2398 113.682 75.2398 113.408C75.2398 110.915 73.9044 109.588 72.0661 109.971Z" stroke="white" stroke-width="1.05" stroke-linecap="round" stroke-linejoin="round"/>
<path d="M74.6303 116.542C74.9134 115.782 75.1099 114.998 75.1898 114.235L70.7606 116.809L74.627 116.542H74.6303Z" stroke="white" stroke-width="1.05" stroke-linecap="round" stroke-linejoin="round"/>
<path d="M66.2981 118.856C66.4014 121.723 68.3629 122.919 70.7673 121.529C72.4191 120.576 73.8611 118.639 74.6303 116.542L70.764 116.809L66.2981 118.856Z" stroke="white" stroke-width="1.05" stroke-linecap="round" stroke-linejoin="round"/>
<path d="M85.1505 102.74C83.6952 104.494 82.6995 106.944 82.6995 109.101C82.6995 110.081 82.906 110.885 83.2623 111.475L87.172 106.511L85.1505 102.74Z" fill="#00EBEB"/>
<path d="M89.1934 100.393C88.5873 100.366 87.9013 100.546 87.1753 100.97C86.446 101.39 85.76 102.007 85.1539 102.743L87.1753 106.514L89.1934 100.396V100.393Z" fill="#00EBEB"/>
<path d="M91.2348 101.823C90.8119 100.94 90.0892 100.433 89.1934 100.39L87.1753 106.507L91.2348 101.823Z" fill="#00EBEB"/>
<path d="M91.2348 101.823L87.1753 106.507L83.2656 111.471C84.0349 112.721 85.4969 113.021 87.1753 112.051C89.6463 110.624 91.6511 106.984 91.6511 103.92C91.6511 103.083 91.5013 102.38 91.2348 101.827V101.823Z" fill="#00EBEB"/>
<path opacity="0.7" d="M89.1934 100.393C88.5873 100.366 87.9013 100.546 87.1753 100.97C86.446 101.39 85.76 102.007 85.1539 102.743L87.1753 106.514L89.1934 100.396V100.393Z" fill="white"/>
<path opacity="0.15" d="M91.2348 101.823C90.8119 100.94 90.0892 100.433 89.1934 100.39L87.1753 106.507L91.2348 101.823Z" fill="black"/>
<path opacity="0.5" d="M91.2348 101.823L87.1753 106.507L83.2656 111.471C84.0349 112.721 85.4969 113.021 87.1753 112.051C89.6463 110.624 91.6511 106.984 91.6511 103.92C91.6511 103.083 91.5013 102.38 91.2348 101.827V101.823Z" fill="white"/>
<path d="M85.1505 102.74C83.6952 104.494 82.6995 106.944 82.6995 109.101C82.6995 110.081 82.906 110.885 83.2623 111.475L87.172 106.511L85.1505 102.74Z" stroke="white" stroke-width="1.05" stroke-linecap="round" stroke-linejoin="round"/>
<path d="M89.1934 100.393C88.5873 100.366 87.9013 100.546 87.1753 100.97C86.446 101.39 85.76 102.007 85.1539 102.743L87.1753 106.514L89.1934 100.396V100.393Z" stroke="white" stroke-width="1.05" stroke-linecap="round" stroke-linejoin="round"/>
<path d="M91.2348 101.823C90.8119 100.94 90.0892 100.433 89.1934 100.39L87.1753 106.507L91.2348 101.823Z" stroke="white" stroke-width="1.05" stroke-linecap="round" stroke-linejoin="round"/>
<path d="M91.2348 101.823L87.1753 106.507L83.2656 111.471C84.0349 112.721 85.4969 113.021 87.1753 112.051C89.6463 110.624 91.6511 106.984 91.6511 103.92C91.6511 103.083 91.5013 102.38 91.2348 101.827V101.823Z" stroke="white" stroke-width="1.05" stroke-linecap="round" stroke-linejoin="round"/>
<path d="M77.1114 106.794L77.844 106.371C78.0538 106.251 78.2237 106.347 78.2237 106.591V107.294C78.2237 107.537 78.0538 107.831 77.844 107.951L77.1114 108.374C76.9016 108.494 76.7317 108.398 76.7317 108.154V107.451C76.7317 107.207 76.9016 106.914 77.1114 106.794Z" fill="#00EBEB"/>
<path d="M77.1114 109.958L77.844 109.534C78.0538 109.414 78.2237 109.511 78.2237 109.754V110.458C78.2237 110.701 78.0538 110.995 77.844 111.115L77.1114 111.538C76.9016 111.658 76.7317 111.561 76.7317 111.318V110.614C76.7317 110.371 76.9016 110.078 77.1114 109.958Z" fill="#00EBEB"/>
<path opacity="0.7" d="M77.1114 109.958L77.844 109.534C78.0538 109.414 78.2237 109.511 78.2237 109.754V110.458C78.2237 110.701 78.0538 110.995 77.844 111.115L77.1114 111.538C76.9016 111.658 76.7317 111.561 76.7317 111.318V110.614C76.7317 110.371 76.9016 110.078 77.1114 109.958Z" fill="white"/>
<path d="M77.1114 113.118L77.844 112.695C78.0538 112.575 78.2237 112.671 78.2237 112.915V113.618C78.2237 113.862 78.0538 114.155 77.844 114.275L77.1114 114.698C76.9016 114.818 76.7317 114.722 76.7317 114.478V113.775C76.7317 113.532 76.9016 113.238 77.1114 113.118Z" fill="#00EBEB"/>
<path opacity="0.15" d="M77.1114 113.118L77.844 112.695C78.0538 112.575 78.2237 112.671 78.2237 112.915V113.618C78.2237 113.862 78.0538 114.155 77.844 114.275L77.1114 114.698C76.9016 114.818 76.7317 114.722 76.7317 114.478V113.775C76.7317 113.532 76.9016 113.238 77.1114 113.118Z" fill="black"/>
<path d="M77.1114 116.279L77.844 115.855C78.0538 115.735 78.2237 115.832 78.2237 116.075V116.779C78.2237 117.022 78.0538 117.315 77.844 117.435L77.1114 117.859C76.9016 117.979 76.7317 117.882 76.7317 117.639V116.935C76.7317 116.692 76.9016 116.399 77.1114 116.279Z" fill="#00EBEB"/>
<path opacity="0.5" d="M77.1114 116.279L77.844 115.855C78.0538 115.735 78.2237 115.832 78.2237 116.075V116.779C78.2237 117.022 78.0538 117.315 77.844 117.435L77.1114 117.859C76.9016 117.979 76.7317 117.882 76.7317 117.639V116.935C76.7317 116.692 76.9016 116.399 77.1114 116.279Z" fill="white"/>
<path opacity="0.4" d="M78.9763 106.724C78.8897 106.724 78.8064 106.681 78.7598 106.601C78.6899 106.481 78.7332 106.331 78.8497 106.261L81.081 104.97C81.2009 104.9 81.3507 104.944 81.4207 105.06C81.4906 105.18 81.4473 105.33 81.3308 105.4L79.0995 106.691C79.0595 106.714 79.0162 106.724 78.9763 106.724Z" fill="black"/>
<path opacity="0.4" d="M78.943 109.914C78.8564 109.914 78.7731 109.871 78.7265 109.791C78.6566 109.671 78.6999 109.521 78.8164 109.451L81.0477 108.161C81.1676 108.091 81.3174 108.134 81.3874 108.251C81.4573 108.371 81.414 108.521 81.2975 108.591L79.0662 109.881C79.0262 109.904 78.983 109.914 78.943 109.914Z" fill="black"/>
<path opacity="0.4" d="M78.9097 113.108C78.8231 113.108 78.7398 113.065 78.6932 112.985C78.6233 112.865 78.6666 112.715 78.7831 112.645L81.0144 111.355C81.1343 111.288 81.2841 111.328 81.3541 111.445C81.424 111.565 81.3807 111.715 81.2641 111.785L79.0329 113.075C78.9929 113.098 78.9496 113.108 78.9097 113.108Z" fill="black"/>
<path opacity="0.4" d="M78.873 116.302C78.7865 116.302 78.7032 116.259 78.6566 116.179C78.5866 116.059 78.6299 115.908 78.7465 115.838L80.9777 114.552C81.0976 114.485 81.2475 114.525 81.3174 114.642C81.3874 114.762 81.3441 114.912 81.2275 114.982L78.9963 116.269C78.9563 116.292 78.913 116.302 78.873 116.302Z" fill="black"/>
<path opacity="0.4" d="M66.5712 127.537C66.4846 127.537 66.4013 127.493 66.3547 127.413C66.2848 127.293 66.3281 127.143 66.4446 127.073L76.8882 121.039C77.0081 120.972 77.158 121.012 77.2279 121.129C77.2978 121.249 77.2546 121.399 77.138 121.469L66.6944 127.503C66.6544 127.527 66.6112 127.537 66.5712 127.537Z" fill="black"/>
<path opacity="0.4" d="M66.9075 129.084C66.821 129.084 66.7377 129.04 66.6911 128.96C66.6211 128.84 66.6644 128.69 66.781 128.62L77.2246 122.586C77.3445 122.516 77.4943 122.559 77.5643 122.676C77.6342 122.796 77.5909 122.946 77.4743 123.016L67.0308 129.05C66.9908 129.074 66.9475 129.084 66.9075 129.084Z" fill="black"/>
<path opacity="0.4" d="M67.3904 130.58C67.3038 130.58 67.2206 130.537 67.174 130.457C67.104 130.337 67.1473 130.187 67.2639 130.117L77.7075 124.083C77.8274 124.013 77.9772 124.056 78.0472 124.173C78.1171 124.293 78.0738 124.443 77.9572 124.513L67.5137 130.547C67.4737 130.57 67.4304 130.58 67.3904 130.58Z" fill="black"/>
<path opacity="0.4" d="M82.9626 118.065C82.876 118.065 82.7927 118.022 82.7461 117.942C82.6762 117.822 82.7195 117.672 82.836 117.602L93.2796 111.568C93.3995 111.501 93.5493 111.541 93.6193 111.658C93.6892 111.778 93.6459 111.928 93.5294 111.998L83.0858 118.032C83.0458 118.055 83.0025 118.065 82.9626 118.065Z" fill="black"/>
<path opacity="0.4" d="M83.2989 119.612C83.2123 119.612 83.1291 119.569 83.0824 119.489C83.0125 119.369 83.0558 119.219 83.1724 119.149L93.6159 113.115C93.7358 113.045 93.8857 113.088 93.9556 113.205C94.0256 113.325 93.9823 113.475 93.8657 113.545L83.4221 119.579C83.3822 119.602 83.3389 119.612 83.2989 119.612Z" fill="black"/>
<path opacity="0.4" d="M83.7818 121.109C83.6952 121.109 83.612 121.066 83.5653 120.986C83.4954 120.866 83.5387 120.716 83.6552 120.646L94.0988 114.612C94.2187 114.542 94.3686 114.585 94.4385 114.702C94.5084 114.822 94.4652 114.972 94.3486 115.042L83.905 121.076C83.865 121.099 83.8218 121.109 83.7818 121.109Z" fill="black"/>
<path d="M70.2544 132.277L94.0622 118.522C94.9014 118.039 95.9371 118.252 96.4466 118.949C96.9595 119.646 96.7497 120.562 95.9105 121.046L72.0927 134.804C71.2535 135.288 70.1012 135.161 69.5917 134.461C69.0822 133.761 69.4119 132.757 70.2511 132.274L70.2544 132.277Z" fill="#00EBEB"/>
<path opacity="0.4" d="M74.1841 139.018C74.0975 139.018 74.0142 138.975 73.9676 138.895C73.8977 138.775 73.941 138.625 74.0575 138.555L84.5011 132.521C84.621 132.454 84.7709 132.494 84.8408 132.611C84.9107 132.731 84.8675 132.881 84.7509 132.951L74.3073 138.985C74.2673 139.008 74.2241 139.018 74.1841 139.018Z" fill="black"/>
<path opacity="0.4" d="M72.8786 138.095C72.7921 138.095 72.7088 138.051 72.6622 137.971C72.5922 137.851 72.6355 137.701 72.7521 137.631L83.1957 131.601C83.3156 131.534 83.4654 131.574 83.5354 131.691C83.6053 131.811 83.562 131.961 83.4454 132.031L73.0019 138.061C72.9619 138.085 72.9186 138.095 72.8786 138.095Z" fill="black"/>
<path opacity="0.4" d="M75.5561 139.832C75.4696 139.832 75.3863 139.788 75.3397 139.708C75.2697 139.588 75.313 139.438 75.4296 139.368L85.8732 133.334C85.9931 133.267 86.1429 133.307 86.2129 133.424C86.2828 133.544 86.2395 133.694 86.1229 133.764L75.6794 139.798C75.6394 139.822 75.5961 139.832 75.5561 139.832Z" fill="black"/>
<path opacity="0.4" d="M89.0935 130.404C89.0069 130.404 88.9237 130.36 88.8771 130.28C88.8071 130.16 88.8504 130.01 88.967 129.94L99.4106 123.906C99.5304 123.84 99.6803 123.88 99.7502 123.996C99.8202 124.116 99.7769 124.266 99.6603 124.336L89.2167 130.37C89.1768 130.394 89.1335 130.404 89.0935 130.404Z" fill="black"/>
<path opacity="0.4" d="M87.7881 129.48C87.7015 129.48 87.6182 129.437 87.5716 129.357C87.5017 129.237 87.545 129.087 87.6615 129.017L98.1051 122.986C98.225 122.919 98.3748 122.959 98.4448 123.076C98.5147 123.196 98.4714 123.346 98.3549 123.416L87.9113 129.447C87.8713 129.47 87.828 129.48 87.7881 129.48Z" fill="black"/>
<path opacity="0.4" d="M90.4656 131.217C90.379 131.217 90.2957 131.174 90.2491 131.094C90.1792 130.974 90.2225 130.824 90.339 130.754L100.783 124.72C100.902 124.653 101.052 124.693 101.122 124.81C101.192 124.93 101.149 125.08 101.032 125.15L90.5888 131.184C90.5488 131.207 90.5055 131.217 90.4656 131.217Z" fill="black"/>
<path d="M90.6221 138.738C88.3542 137.428 84.5145 137.521 82.0401 138.951C79.5691 140.378 79.4026 142.599 81.6704 143.909C83.9383 145.219 87.7781 145.126 90.2524 143.695C92.7235 142.269 92.89 140.048 90.6221 138.738ZM89.0802 143.019C87.3152 144.039 84.5711 144.106 82.9526 143.169C81.3341 142.232 81.4506 140.645 83.2157 139.628C84.9807 138.608 87.7248 138.541 89.3433 139.478C90.9618 140.415 90.8452 142.002 89.0802 143.019Z" fill="#00EBEB"/>
<path d="M84.3879 140.308C85.4469 139.695 87.0921 139.655 88.0645 140.218C89.0369 140.782 88.9636 141.732 87.9046 142.342C86.8456 142.952 85.2005 142.995 84.2281 142.432C83.2556 141.869 83.3289 140.918 84.3879 140.308Z" fill="#00EBEB"/>
<path opacity="0.5" d="M84.3879 140.308C85.4469 139.695 87.0921 139.655 88.0645 140.218C89.0369 140.782 88.9636 141.732 87.9046 142.342C86.8456 142.952 85.2005 142.995 84.2281 142.432C83.2556 141.869 83.3289 140.918 84.3879 140.308Z" fill="black"/>
<path opacity="0.15" d="M90.6221 138.738C88.3542 137.428 84.5145 137.521 82.0401 138.951C79.5691 140.378 79.4026 142.599 81.6704 143.909C83.9383 145.219 87.7781 145.126 90.2524 143.695C92.7235 142.269 92.89 140.048 90.6221 138.738ZM89.0802 143.019C87.3152 144.039 84.5711 144.106 82.9526 143.169C81.3341 142.232 81.4506 140.645 83.2157 139.628C84.9807 138.608 87.7248 138.541 89.3433 139.478C90.9618 140.415 90.8452 142.002 89.0802 143.019Z" fill="black"/>
<path d="M84.3313 138.081L84.8508 139.008C85.8465 138.778 86.9289 138.758 87.888 138.951L88.5873 138.001C87.2452 137.728 85.73 137.758 84.3313 138.081Z" fill="#00EBEB"/>
<path opacity="0.7" d="M84.3313 138.081L84.8508 139.008C85.8465 138.778 86.9289 138.758 87.888 138.951L88.5873 138.001C87.2452 137.728 85.73 137.758 84.3313 138.081Z" fill="white"/>
<path opacity="0.4" d="M86.4593 137.621C86.4593 137.621 86.4493 137.621 86.4427 137.621C86.3061 137.615 86.2029 137.495 86.2095 137.358L86.2761 136.218L90.8685 133.564C90.9884 133.497 91.1383 133.537 91.2082 133.654C91.2781 133.774 91.2348 133.924 91.1183 133.994L86.759 136.511L86.7057 137.385C86.6991 137.518 86.5892 137.618 86.4593 137.618V137.621Z" fill="black"/>
<path d="M104.046 130.987C101.778 129.677 97.9386 129.77 95.4642 131.2C92.9932 132.627 92.8267 134.848 95.0946 136.158C97.3624 137.468 101.202 137.375 103.677 135.944C106.148 134.518 106.314 132.297 104.046 130.987ZM102.504 135.268C100.739 136.288 97.9952 136.355 96.3767 135.418C94.7582 134.481 94.8748 132.894 96.6398 131.877C98.4048 130.857 101.149 130.79 102.767 131.727C104.386 132.664 104.269 134.251 102.504 135.268Z" fill="#00EBEB"/>
<path d="M97.812 132.557C98.871 131.944 100.516 131.904 101.489 132.467C102.461 133.031 102.388 133.981 101.329 134.591C100.27 135.201 98.6246 135.244 97.6522 134.681C96.6798 134.118 96.753 133.167 97.812 132.557Z" fill="#00EBEB"/>
<path opacity="0.5" d="M97.812 132.557C98.871 131.944 100.516 131.904 101.489 132.467C102.461 133.031 102.388 133.981 101.329 134.591C100.27 135.201 98.6246 135.244 97.6522 134.681C96.6798 134.118 96.753 133.167 97.812 132.557Z" fill="black"/>
<path opacity="0.15" d="M104.046 130.987C101.778 129.677 97.9386 129.77 95.4642 131.2C92.9932 132.627 92.8267 134.848 95.0946 136.158C97.3624 137.468 101.202 137.375 103.677 135.944C106.148 134.518 106.314 132.297 104.046 130.987ZM102.504 135.268C100.739 136.288 97.9952 136.355 96.3767 135.418C94.7582 134.481 94.8748 132.894 96.6398 131.877C98.4048 130.857 101.149 130.79 102.767 131.727C104.386 132.664 104.269 134.251 102.504 135.268Z" fill="black"/>
<path d="M104.046 130.987C102.131 129.88 99.0942 129.78 96.7064 130.634L97.5256 131.474C99.2307 130.864 101.399 130.934 102.767 131.724C103.017 131.867 103.22 132.031 103.39 132.201L104.919 131.654C104.682 131.414 104.399 131.187 104.046 130.984V130.987Z" fill="#00EBEB"/>
<path opacity="0.7" d="M104.046 130.987C102.131 129.88 99.0942 129.78 96.7064 130.634L97.5256 131.474C99.2307 130.864 101.399 130.934 102.767 131.724C103.017 131.867 103.22 132.031 103.39 132.201L104.919 131.654C104.682 131.414 104.399 131.187 104.046 130.984V130.987Z" fill="white"/>
<path opacity="0.4" d="M99.9201 129.847C99.9201 129.847 99.9101 129.847 99.9034 129.847C99.7669 129.84 99.6636 129.72 99.6703 129.584L99.7369 128.44L104.329 125.786C104.449 125.72 104.599 125.76 104.669 125.876C104.739 125.996 104.696 126.146 104.579 126.217L100.22 128.733L100.167 129.607C100.16 129.74 100.05 129.84 99.9201 129.84V129.847Z" fill="black"/>
<path opacity="0.4" d="M87.8746 146.953C87.7881 146.953 87.7048 146.909 87.6582 146.829C87.5882 146.709 87.6315 146.559 87.7481 146.489L113.108 131.841C113.228 131.774 113.378 131.814 113.447 131.931C113.517 132.051 113.474 132.201 113.358 132.271L87.9979 146.919C87.9579 146.943 87.9146 146.953 87.8746 146.953Z" fill="black"/>
<path opacity="0.4" d="M89.2434 147.739C89.1568 147.739 89.0735 147.696 89.0269 147.616C88.957 147.496 89.0003 147.346 89.1168 147.276L114.476 132.627C114.596 132.561 114.746 132.601 114.816 132.717C114.886 132.837 114.843 132.987 114.726 133.057L89.3666 147.706C89.3266 147.729 89.2833 147.739 89.2434 147.739Z" fill="black"/>
<path opacity="0.4" d="M90.6121 148.533C90.5255 148.533 90.4422 148.489 90.3956 148.409C90.3257 148.289 90.369 148.139 90.4855 148.069L115.845 133.421C115.965 133.354 116.115 133.394 116.185 133.511C116.255 133.631 116.212 133.781 116.095 133.851L90.7353 148.499C90.6953 148.523 90.652 148.533 90.6121 148.533Z" fill="black"/>
</g>
<defs>
<clipPath id="clip0_7_17">
<rect width="150" height="153" fill="white"/>
</clipPath>
</defs>
</svg>
