<svg width="11" height="13" viewBox="0 0 11 13" fill="none" xmlns="http://www.w3.org/2000/svg">
<path d="M10.9207 2.66819C10.8382 2.38701 10.7832 2.2308 10.7832 2.2308C10.6938 1.94025 10.4669 1.94025 10.13 1.89026L8.30454 1.68094C8.07764 1.64658 8.07764 1.64658 7.98826 1.4685C7.68916 0.856157 7.59634 0.5 7.26975 0.5H3.72877C3.40217 0.5 3.31279 0.856157 3.0137 1.47162C2.92431 1.64658 2.92431 1.64658 2.69742 1.68407L0.868483 1.89339C0.535012 1.94337 0.294363 1.97149 0.204979 2.26204C0.204979 2.26204 0.163725 2.39013 0.0777789 2.66819C-0.0322321 3.03996 -0.0769241 2.99935 0.301239 2.99935H10.6973C11.0754 3.00247 11.0342 3.03996 10.9207 2.66819ZM9.74156 3.99909H1.25696C0.686277 3.99909 0.658774 4.06782 0.693153 4.45834L1.33603 12.0376C1.39103 12.4219 1.43229 12.5 1.93765 12.5H9.06086C9.56623 12.5 9.60748 12.4219 9.66249 12.0376L10.3054 4.45834C10.3397 4.0647 10.3122 3.99909 9.74156 3.99909Z" fill="white"/>
</svg>
